<?xml version="1.0" encoding="UTF-8" standalone="no"?>
<!-- Created with Inkscape (http://www.inkscape.org/) -->

<svg
   xmlns:dc="http://purl.org/dc/elements/1.1/"
   xmlns:cc="http://creativecommons.org/ns#"
   xmlns:rdf="http://www.w3.org/1999/02/22-rdf-syntax-ns#"
   xmlns:svg="http://www.w3.org/2000/svg"
   xmlns="http://www.w3.org/2000/svg"
   xmlns:sodipodi="http://sodipodi.sourceforge.net/DTD/sodipodi-0.dtd"
   xmlns:inkscape="http://www.inkscape.org/namespaces/inkscape"
   id="svg3055"
   version="1.1"
   inkscape:version="0.48.5 r10040"
   width="540"
   height="270"
   sodipodi:docname="ccj.svg">
  <metadata
     id="metadata3061">
    <rdf:RDF>
      <cc:Work
         rdf:about="">
        <dc:format>image/svg+xml</dc:format>
        <dc:type
           rdf:resource="http://purl.org/dc/dcmitype/StillImage" />
        <dc:title />
      </cc:Work>
    </rdf:RDF>
  </metadata>
  <defs
     id="defs3059" />
  <sodipodi:namedview
     pagecolor="#ffffff"
     bordercolor="#666666"
     borderopacity="1"
     objecttolerance="10"
     gridtolerance="10"
     guidetolerance="10"
     inkscape:pageopacity="0"
     inkscape:pageshadow="2"
     inkscape:window-width="1364"
     inkscape:window-height="747"
     id="namedview3057"
     showgrid="false"
     inkscape:zoom="0.96296296"
     inkscape:cx="519.3876"
     inkscape:cy="202.15412"
     inkscape:window-x="0"
     inkscape:window-y="19"
     inkscape:window-maximized="1"
     inkscape:current-layer="svg3055" />
  <rect
     style="opacity:1;color:#000000;fill:#f28c30;fill-opacity:1;fill-rule:nonzero;stroke:#333333;stroke-width:0;stroke-linecap:round;stroke-linejoin:round;stroke-miterlimit:4;stroke-opacity:0.94117647000000004;stroke-dasharray:none;stroke-dashoffset:0;marker:none;visibility:visible;display:inline;overflow:visible;enable-background:accumulate"
     id="rect3065"
     width="540"
     height="270"
     x="0"
     y="0" />
  <path
     inkscape:connector-curvature="0"
     style="fill:#ffffff"
     d="m 433.54806,78.249868 h -4.14938 v -11.66493 h -3.33284 v -6.66567 h -46.51639 l -5.95078,-8.33209 h -31.30033 c -2.50962,0 -4.55265,2.04303 -4.55265,4.55266 v 72.800802 l 0.01,0 c -0.008,0.93819 0.2833,1.85638 0.86988,2.6246 0.81654,1.06651 2.05302,1.67642 3.39449,1.67642 h 74.58722 c 1.92637,0 3.62279,-1.29814 4.08272,-3.02122 l 17.04079,-46.723022 v -0.29496 c 0,-2.86957 -1.75974,-4.95259 -4.18271,-4.95259 z m -7.48222,0 H 412.7345 v -1.66642 c 0,-0.92153 -0.74655,-1.66642 -1.66642,-1.66642 -0.91986,0 -1.66642,0.74489 -1.66642,1.66642 v 1.66642 h -8.33209 v -1.66642 c 0,-0.92153 -0.74655,-1.66642 -1.66642,-1.66642 -0.91986,0 -1.66641,0.74489 -1.66641,1.66642 v 1.66642 h -8.33209 v -1.66642 c 0,-0.92153 -0.74656,-1.66642 -1.66642,-1.66642 -0.91986,0 -1.66642,0.74489 -1.66642,1.66642 v 1.66642 h -8.33209 v -1.66642 c 0,-0.92153 -0.74655,-1.66642 -1.66642,-1.66642 -0.91986,0 -1.66642,0.74489 -1.66642,1.66642 v 1.66642 h -8.33208 v -1.66642 c 0,-0.92153 -0.74656,-1.66642 -1.66642,-1.66642 -0.91987,0 -1.66642,0.74489 -1.66642,1.66642 v 1.66642 h -3.7811 c -0.2383,0 -0.47326,0.02 -0.70323,0.0583 -0.83154,0.13832 -1.5831,0.52493 -2.18134,1.06484 v -9.45525 h 69.98955 v 8.33209 z M 346.07778,105.40082 V 79.916288 h 9.49025 c -0.31329,0.40494 -0.55825,0.85987 -0.6899,1.3548 l -0.52825,1.44978 -8.2721,22.679952 z m 6.66567,-28.817372 h -4.30936 l 0.97652,-0.97652 3.33284,-3.33283 v 4.30935 z m 69.98956,-13.33134 v 3.33283 h -69.01304 l -4.30936,4.30936 v -7.64219 h 32.52015 40.80225 z m -81.65449,-7.11227 c 0,-0.67324 0.54826,-1.21982 1.21982,-1.21982 h 29.58392 l 3.57114,4.99925 h -29.37562 v 14.30787 l -3.33284,3.33283 v 36.802842 l -1.66642,4.54599 V 56.139838 z m 76.43693,73.074092 c -0.10998,0.40827 -0.48493,0.69489 -0.90819,0.69489 h -74.58721 c -0.40494,0 -0.64157,-0.23163 -0.74655,-0.36994 -0.10499,-0.13665 -0.26663,-0.4266 -0.20497,-0.6799 l 1.67641,-4.59598 v 0.002 l 15.26439,-41.850422 0.0433,-0.13664 c 0.10998,-0.40828 0.48493,-0.6949 0.9082,-0.6949 h 70.43782 4.14938 c 0.63324,0 0.79488,0.90986 0.83654,1.3648 l -16.86915,46.266442 z"
     id="path3193" />
  <g
     style="font-size:24px;font-style:normal;font-variant:normal;font-weight:normal;font-stretch:normal;line-height:125%;letter-spacing:0.05000000000000000px;word-spacing:0px;fill:#ffffff;fill-opacity:1;stroke:none;font-family:Raleway;-inkscape-font-specification:Raleway"
     id="text3837">
    <path
       d="m 48.175497,181.69443 c -0.640016,-0.72531 -1.493348,-1.31198 -2.56,-1.76 -1.066679,-0.44798 -2.282678,-0.67198 -3.648,-0.672 -2.005341,2e-5 -3.466673,0.38402 -4.384,1.152 -0.917338,0.74669 -1.376004,1.77069 -1.376,3.072 -4e-6,0.68268 0.117329,1.24802 0.352,1.696 0.255995,0.42668 0.639995,0.80002 1.152,1.12 0.511994,0.32002 1.16266,0.59735 1.952,0.832 0.810658,0.23468 1.75999,0.46935 2.848,0.704 1.215988,0.25601 2.303987,0.54401 3.264,0.864 0.981318,0.32001 1.813318,0.72535 2.496,1.216 0.68265,0.46935 1.205316,1.04534 1.568,1.728 0.362648,0.68268 0.543981,1.53601 0.544,2.56 -1.9e-5,1.04534 -0.202685,1.95201 -0.608,2.72 -0.405351,0.768 -0.970684,1.408 -1.696,1.92 -0.725349,0.512 -1.589348,0.896 -2.592,1.152 -1.002679,0.23467 -2.101345,0.352 -3.296,0.352 -3.520007,0 -6.560004,-1.09866 -9.12,-3.296 l 1.12,-1.824 c 0.405331,0.42667 0.88533,0.83201 1.44,1.216 0.575996,0.38401 1.205328,0.72534 1.888,1.024 0.703994,0.27734 1.45066,0.50134 2.24,0.672 0.789325,0.14934 1.621324,0.224 2.496,0.224 1.813321,0 3.22132,-0.32 4.224,-0.96 1.023984,-0.66133 1.535984,-1.65333 1.536,-2.976 -1.6e-5,-0.70399 -0.149349,-1.29066 -0.448,-1.76 -0.277349,-0.49066 -0.704015,-0.90666 -1.28,-1.248 -0.576014,-0.36266 -1.29068,-0.67199 -2.144,-0.928 -0.853345,-0.25599 -1.845344,-0.51199 -2.976,-0.768 -1.194675,-0.27732 -2.240007,-0.56532 -3.136,-0.864 -0.896005,-0.29865 -1.653338,-0.67199 -2.272,-1.12 -0.61867,-0.44799 -1.088003,-0.98132 -1.408,-1.6 -0.298669,-0.63998 -0.448002,-1.41865 -0.448,-2.336 -2e-6,-1.04531 0.191998,-1.97331 0.576,-2.784 0.40533,-0.83198 0.970663,-1.51464 1.696,-2.048 0.725328,-0.55464 1.578661,-0.97064 2.56,-1.248 0.981325,-0.29864 2.069324,-0.44798 3.264,-0.448 1.514655,2e-5 2.858654,0.23469 4.032,0.704 1.194651,0.44802 2.271984,1.08802 3.232,1.92 l -1.088,1.792"
       style="font-size:32px;-inkscape-font-specification:Raleway;fill:#ffffff"
       id="path3100" />
    <path
       d="m 53.934996,200.15843 0,-16.672 2.176,0 0,16.672 -2.176,0 m 0,-20.16 0,-3.2 2.176,0 0,3.2 -2.176,0"
       style="font-size:32px;-inkscape-font-specification:Raleway;fill:#ffffff"
       id="path3102" />
    <path
       d="m 85.784997,200.15843 -2.176,0 0,-9.312 c -2.5e-5,-1.94132 -0.309358,-3.37065 -0.928,-4.288 -0.61869,-0.91732 -1.536022,-1.37598 -2.752,-1.376 -0.640021,2e-5 -1.24802,0.11735 -1.824,0.352 -0.554685,0.23468 -1.077352,0.56535 -1.568,0.992 -0.469351,0.42668 -0.88535,0.93868 -1.248,1.536 -0.362683,0.57601 -0.640016,1.21601 -0.832,1.92 l 0,10.176 -2.176,0 0,-9.312 c -1.4e-5,-1.98399 -0.29868,-3.42399 -0.896,-4.32 -0.597345,-0.89598 -1.514678,-1.34398 -2.752,-1.344 -1.258675,2e-5 -2.378674,0.43735 -3.36,1.312 -0.981339,0.87468 -1.685338,2.02668 -2.112,3.456 l 0,10.208 -2.176,0 0,-16.672 1.984,0 0,3.776 c 0.682662,-1.27998 1.578661,-2.27198 2.688,-2.976 1.109325,-0.72531 2.335991,-1.08798 3.68,-1.088 1.407988,2e-5 2.527987,0.39469 3.36,1.184 0.853319,0.78935 1.375985,1.82402 1.568,3.104 1.557316,-2.85865 3.701314,-4.28798 6.432,-4.288 0.938644,2e-5 1.727976,0.17069 2.368,0.512 0.661308,0.34135 1.183975,0.83202 1.568,1.472 0.405307,0.61868 0.693307,1.37602 0.864,2.272 0.191973,0.87468 0.287973,1.85601 0.288,2.944 l 0,9.76"
       style="font-size:32px;-inkscape-font-specification:Raleway;fill:#ffffff"
       id="path3104" />
    <path
       d="m 98.984498,200.47843 c -1.408009,0 -2.656008,-0.352 -3.744,-1.056 -1.066672,-0.72533 -1.930672,-1.632 -2.592,-2.72 l 0,10.272 -2.176,0 0,-23.488 1.952,0 0,3.232 c 0.682662,-1.04532 1.567994,-1.88798 2.656,-2.528 1.087992,-0.66131 2.271991,-0.99198 3.552,-0.992 1.151989,2e-5 2.207992,0.24535 3.168002,0.736 0.95998,0.46935 1.79198,1.10935 2.496,1.92 0.70398,0.78935 1.24798,1.70668 1.632,2.752 0.40531,1.04535 0.60798,2.12268 0.608,3.232 -2e-5,1.17334 -0.18135,2.28267 -0.544,3.328 -0.36269,1.04534 -0.88535,1.96267 -1.568,2.752 -0.66135,0.78934 -1.46135,1.41867 -2.4,1.888 -0.91735,0.448 -1.93068,0.672 -3.040002,0.672 m -0.608,-1.92 c 0.895989,0 1.706652,-0.192 2.432002,-0.576 0.74665,-0.384 1.37598,-0.88533 1.888,-1.504 0.53332,-0.63999 0.93865,-1.35466 1.216,-2.144 0.27732,-0.81066 0.41598,-1.64266 0.416,-2.496 -2e-5,-0.89599 -0.16002,-1.74932 -0.48,-2.56 -0.32002,-0.81065 -0.75735,-1.52532 -1.312,-2.144 -0.55468,-0.61865 -1.21601,-1.10932 -1.984,-1.472 -0.74668,-0.36265 -1.557346,-0.54398 -2.432002,-0.544 -0.554676,2e-5 -1.141342,0.11735 -1.76,0.352 -0.597341,0.21335 -1.162673,0.51202 -1.696,0.896 -0.512006,0.36268 -0.960005,0.80001 -1.344,1.312 -0.362671,0.49068 -0.586671,1.01335 -0.672,1.568 l 0,5.12 c 0.255995,0.59734 0.575995,1.15201 0.96,1.664 0.405328,0.51201 0.853327,0.96001 1.344,1.344 0.511993,0.36267 1.055992,0.65067 1.632,0.864 0.575991,0.21334 1.173324,0.32 1.792,0.32"
       style="font-size:32px;-inkscape-font-specification:Raleway;fill:#ffffff"
       id="path3106" />
    <path
       d="m 110.36849,176.79843 2.176,0 0,19.584 c 0,0.61867 0.17067,1.10934 0.512,1.472 0.34133,0.34134 0.82133,0.512 1.44,0.512 0.23466,0 0.512,-0.032 0.832,-0.096 0.32,-0.064 0.61866,-0.14933 0.896,-0.256 l 0.384,1.76 c -0.40534,0.17067 -0.90667,0.30934 -1.504,0.416 -0.576,0.10667 -1.07734,0.16 -1.504,0.16 -1.00267,0 -1.792,-0.27733 -2.368,-0.832 -0.576,-0.576 -0.864,-1.376 -0.864,-2.4 l 0,-20.32"
       style="font-size:32px;-inkscape-font-specification:Raleway;fill:#ffffff"
       id="path3108" />
    <path
       d="m 126.21,200.47843 c -1.21601,0 -2.33601,-0.224 -3.36,-0.672 -1.00268,-0.46933 -1.87734,-1.09866 -2.624,-1.888 -0.74667,-0.81066 -1.33334,-1.73866 -1.76,-2.784 -0.40534,-1.04533 -0.608,-2.16532 -0.608,-3.36 0,-1.17332 0.20266,-2.27199 0.608,-3.296 0.42666,-1.04532 1.00266,-1.95198 1.728,-2.72 0.74666,-0.78932 1.63199,-1.40798 2.656,-1.856 1.02399,-0.46931 2.13332,-0.70398 3.328,-0.704 1.21599,2e-5 2.32532,0.23469 3.328,0.704 1.02398,0.44802 1.89865,1.06668 2.624,1.856 0.72531,0.78935 1.29065,1.69601 1.696,2.72 0.40531,1.02401 0.60798,2.11201 0.608,3.264 -2e-5,0.17068 -2e-5,0.34134 0,0.512 -2e-5,0.17068 -0.0107,0.28801 -0.032,0.352 l -14.272,0 c 0.064,0.89601 0.26666,1.72801 0.608,2.496 0.36266,0.74667 0.82133,1.39734 1.376,1.952 0.55466,0.55467 1.18399,0.992 1.888,1.312 0.72532,0.29867 1.49332,0.448 2.304,0.448 0.53332,0 1.06665,-0.0747 1.6,-0.224 0.53332,-0.14933 1.02398,-0.352 1.472,-0.608 0.44798,-0.256 0.85332,-0.56533 1.216,-0.928 0.36265,-0.38399 0.63998,-0.79999 0.832,-1.248 l 1.888,0.512 c -0.25602,0.61867 -0.61869,1.184 -1.088,1.696 -0.46935,0.49067 -1.01335,0.928 -1.632,1.312 -0.61868,0.36267 -1.30135,0.64 -2.048,0.832 -0.74668,0.21334 -1.52535,0.32 -2.336,0.32 m 6.144,-9.536 c -0.064,-0.89599 -0.27735,-1.70665 -0.64,-2.432 -0.34135,-0.74665 -0.78935,-1.38665 -1.344,-1.92 -0.53335,-0.53332 -1.16268,-0.94932 -1.888,-1.248 -0.70401,-0.29865 -1.46135,-0.44798 -2.272,-0.448 -0.81068,2e-5 -1.57868,0.14935 -2.304,0.448 -0.72534,0.29868 -1.36534,0.71468 -1.92,1.248 -0.53334,0.53335 -0.97067,1.17335 -1.312,1.92 -0.32001,0.74668 -0.51201,1.55735 -0.576,2.432 l 12.256,0"
       style="font-size:32px;-inkscape-font-specification:Raleway;fill:#ffffff"
       id="path3110" />
    <path
       d="m 145.054,188.63843 c -1e-5,-1.36532 0.23466,-2.71998 0.704,-4.064 0.49066,-1.36531 1.19466,-2.58131 2.112,-3.648 0.91732,-1.06664 2.04799,-1.93064 3.392,-2.592 1.34399,-0.68264 2.86932,-1.02398 4.576,-1.024 2.02665,2e-5 3.75465,0.45869 5.184,1.376 1.45064,0.91736 2.51731,2.11202 3.2,3.584 l -1.76,1.088 c -0.36269,-0.74665 -0.81069,-1.37598 -1.344,-1.888 -0.51202,-0.51198 -1.06669,-0.92798 -1.664,-1.248 -0.59735,-0.31998 -1.21602,-0.54398 -1.856,-0.672 -0.64002,-0.14931 -1.26935,-0.22398 -1.888,-0.224 -1.36535,2e-5 -2.57068,0.27736 -3.616,0.832 -1.04535,0.55469 -1.93068,1.28002 -2.656,2.176 -0.70401,0.89602 -1.23734,1.90935 -1.6,3.04 -0.36268,1.10935 -0.54401,2.24001 -0.544,3.392 -1e-5,1.25868 0.21332,2.46401 0.64,3.616 0.44799,1.15201 1.04532,2.17601 1.792,3.072 0.76799,0.87467 1.66399,1.57867 2.688,2.112 1.04532,0.512 2.17598,0.768 3.392,0.768 0.63998,0 1.29065,-0.0747 1.952,-0.224 0.68265,-0.17066 1.33331,-0.42666 1.952,-0.768 0.63998,-0.36266 1.22664,-0.79999 1.76,-1.312 0.53331,-0.53333 0.98131,-1.17333 1.344,-1.92 l 1.856,0.96 c -0.36269,0.85334 -0.87469,1.61067 -1.536,2.272 -0.66136,0.64 -1.39736,1.184 -2.208,1.632 -0.81069,0.448 -1.67469,0.78934 -2.592,1.024 -0.89602,0.23467 -1.78135,0.352 -2.656,0.352 -1.55735,0 -2.98668,-0.34133 -4.288,-1.024 -1.30134,-0.68266 -2.42134,-1.568 -3.36,-2.656 -0.93867,-1.10933 -1.67467,-2.35733 -2.208,-3.744 -0.51201,-1.40799 -0.76801,-2.83732 -0.768,-4.288"
       style="font-size:32px;-inkscape-font-specification:Raleway;fill:#ffffff"
       id="path3112" />
    <path
       d="m 173.31349,200.47843 c -1.81334,0 -3.168,-0.59733 -4.064,-1.792 -0.87467,-1.216 -1.312,-3.01866 -1.312,-5.408 l 0,-9.792 2.176,0 0,9.408 c 0,3.77601 1.29066,5.664 3.872,5.664 0.63999,0 1.26932,-0.10666 1.888,-0.32 0.61866,-0.21333 1.18399,-0.52266 1.696,-0.928 0.53332,-0.40533 1.00265,-0.88533 1.408,-1.44 0.42665,-0.55466 0.76799,-1.18399 1.024,-1.888 l 0,-10.496 2.176,0 0,13.856 c -2e-5,0.59734 0.25598,0.896 0.768,0.896 l 0,1.92 c -0.25602,0.0427 -0.46935,0.064 -0.64,0.064 -0.14935,0 -0.25602,0 -0.32,0 -0.51202,-0.0213 -0.92801,-0.20266 -1.248,-0.544 -0.32001,-0.34133 -0.48001,-0.8 -0.48,-1.376 l 0,-1.92 c -0.72535,1.30134 -1.71735,2.31467 -2.976,3.04 -1.23734,0.704 -2.56001,1.056 -3.968,1.056"
       style="font-size:32px;-inkscape-font-specification:Raleway;fill:#ffffff"
       id="path3114" />
    <path
       d="m 192.68349,200.47843 c -1.30134,0 -2.57067,-0.21333 -3.808,-0.64 -1.23733,-0.42666 -2.304,-1.04533 -3.2,-1.856 l 0.992,-1.472 c 0.93867,0.768 1.888,1.344 2.848,1.728 0.98133,0.384 2.02666,0.576 3.136,0.576 1.34399,0 2.41066,-0.26666 3.2,-0.8 0.81066,-0.55466 1.21599,-1.33333 1.216,-2.336 -1e-5,-0.46933 -0.10668,-0.85333 -0.32,-1.152 -0.21334,-0.31999 -0.53334,-0.59733 -0.96,-0.832 -0.40534,-0.23466 -0.92801,-0.43732 -1.568,-0.608 -0.61867,-0.19199 -1.344,-0.38399 -2.176,-0.576 -0.96,-0.23466 -1.792,-0.46932 -2.496,-0.704 -0.704,-0.23466 -1.29067,-0.50132 -1.76,-0.8 -0.448,-0.29866 -0.78933,-0.66132 -1.024,-1.088 -0.21333,-0.44799 -0.32,-1.00265 -0.32,-1.664 0,-0.83199 0.16,-1.56798 0.48,-2.208 0.34133,-0.63998 0.78933,-1.16265 1.344,-1.568 0.576,-0.42665 1.23733,-0.74665 1.984,-0.96 0.768,-0.21331 1.57866,-0.31998 2.432,-0.32 1.27999,2e-5 2.44266,0.21335 3.488,0.64 1.04532,0.40535 1.88799,0.94935 2.528,1.632 l -1.056,1.28 c -0.61868,-0.63998 -1.37601,-1.11998 -2.272,-1.44 -0.87467,-0.31998 -1.79201,-0.47998 -2.752,-0.48 -0.576,2e-5 -1.10934,0.064 -1.6,0.192 -0.49067,0.10668 -0.928,0.28802 -1.312,0.544 -0.36267,0.25602 -0.65067,0.58668 -0.864,0.992 -0.21333,0.38402 -0.32,0.84268 -0.32,1.376 0,0.44801 0.0747,0.81068 0.224,1.088 0.14933,0.27735 0.39467,0.52268 0.736,0.736 0.34133,0.19201 0.768,0.37335 1.28,0.544 0.53333,0.14935 1.17333,0.30934 1.92,0.48 1.06666,0.25601 2.00533,0.51201 2.816,0.768 0.81066,0.25601 1.48266,0.55468 2.016,0.896 0.55466,0.34134 0.97066,0.75734 1.248,1.248 0.27732,0.49067 0.41599,1.08801 0.416,1.792 -10e-6,1.53601 -0.58668,2.752 -1.76,3.648 -1.17334,0.896 -2.75201,1.344 -4.736,1.344"
       style="font-size:32px;-inkscape-font-specification:Raleway;fill:#ffffff"
       id="path3116" />
    <path
       d="m 210.76,199.35843 c -0.12801,0.064 -0.32001,0.14934 -0.576,0.256 -0.23468,0.10667 -0.51201,0.21334 -0.832,0.32 -0.32001,0.10667 -0.68268,0.20267 -1.088,0.288 -0.40534,0.0853 -0.83201,0.128 -1.28,0.128 -0.46934,0 -0.91734,-0.064 -1.344,-0.192 -0.42667,-0.128 -0.80001,-0.32 -1.12,-0.576 -0.32001,-0.27733 -0.57601,-0.61866 -0.768,-1.024 -0.19201,-0.40533 -0.28801,-0.87466 -0.288,-1.408 l 0,-11.936 -2.304,0 0,-1.728 2.304,0 0,-5.632 2.176,0 0,5.632 3.84,0 0,1.728 -3.84,0 0,11.328 c 0.0427,0.61867 0.25599,1.07734 0.64,1.376 0.40532,0.27734 0.86399,0.416 1.376,0.416 0.61866,0 1.16266,-0.096 1.632,-0.288 0.46932,-0.21333 0.76799,-0.36266 0.896,-0.448 l 0.576,1.76"
       style="font-size:32px;-inkscape-font-specification:Raleway;fill:#ffffff"
       id="path3118" />
    <path
       d="m 220.2265,200.47843 c -1.21601,0 -2.32534,-0.224 -3.328,-0.672 -1.00267,-0.46933 -1.87734,-1.09866 -2.624,-1.888 -0.72534,-0.78933 -1.29067,-1.70666 -1.696,-2.752 -0.40533,-1.04533 -0.608,-2.14399 -0.608,-3.296 0,-1.17332 0.20267,-2.28265 0.608,-3.328 0.42666,-1.04532 1.00266,-1.96265 1.728,-2.752 0.74666,-0.78932 1.62133,-1.41865 2.624,-1.888 1.00266,-0.46931 2.10132,-0.70398 3.296,-0.704 1.19466,2e-5 2.29332,0.23469 3.296,0.704 1.02399,0.46935 1.89865,1.09868 2.624,1.888 0.74665,0.78935 1.32265,1.70668 1.728,2.752 0.42665,1.04535 0.63998,2.15468 0.64,3.328 -2e-5,1.15201 -0.20268,2.25067 -0.608,3.296 -0.40535,1.04534 -0.98135,1.96267 -1.728,2.752 -0.72535,0.78934 -1.60001,1.41867 -2.624,1.888 -1.00268,0.448 -2.11201,0.672 -3.328,0.672 m -6.048,-8.576 c 0,0.93868 0.16,1.81334 0.48,2.624 0.32,0.78934 0.74666,1.49334 1.28,2.112 0.55466,0.59734 1.19466,1.06667 1.92,1.408 0.74666,0.34134 1.53599,0.512 2.368,0.512 0.83199,0 1.61066,-0.17066 2.336,-0.512 0.74665,-0.36266 1.39732,-0.84266 1.952,-1.44 0.55465,-0.61866 0.99199,-1.33333 1.312,-2.144 0.31998,-0.81066 0.47998,-1.68532 0.48,-2.624 -2e-5,-0.91732 -0.16002,-1.78132 -0.48,-2.592 -0.32001,-0.83199 -0.75735,-1.54665 -1.312,-2.144 -0.55468,-0.61865 -1.20535,-1.09865 -1.952,-1.44 -0.72534,-0.36265 -1.50401,-0.54398 -2.336,-0.544 -0.83201,2e-5 -1.61067,0.18135 -2.336,0.544 -0.72534,0.34135 -1.36534,0.82135 -1.92,1.44 -0.55467,0.61868 -0.992,1.34401 -1.312,2.176 -0.32,0.81068 -0.48,1.68534 -0.48,2.624"
       style="font-size:32px;-inkscape-font-specification:Raleway;fill:#ffffff"
       id="path3120" />
    <path
       d="m 257.035,200.15843 -2.176,0 0,-9.312 c -2e-5,-1.94132 -0.30936,-3.37065 -0.928,-4.288 -0.61869,-0.91732 -1.53602,-1.37598 -2.752,-1.376 -0.64002,2e-5 -1.24802,0.11735 -1.824,0.352 -0.55468,0.23468 -1.07735,0.56535 -1.568,0.992 -0.46935,0.42668 -0.88535,0.93868 -1.248,1.536 -0.36268,0.57601 -0.64001,1.21601 -0.832,1.92 l 0,10.176 -2.176,0 0,-9.312 c -1e-5,-1.98399 -0.29868,-3.42399 -0.896,-4.32 -0.59734,-0.89598 -1.51468,-1.34398 -2.752,-1.344 -1.25867,2e-5 -2.37867,0.43735 -3.36,1.312 -0.98134,0.87468 -1.68534,2.02668 -2.112,3.456 l 0,10.208 -2.176,0 0,-16.672 1.984,0 0,3.776 c 0.68266,-1.27998 1.57866,-2.27198 2.688,-2.976 1.10933,-0.72531 2.33599,-1.08798 3.68,-1.088 1.40799,2e-5 2.52799,0.39469 3.36,1.184 0.85332,0.78935 1.37599,1.82402 1.568,3.104 1.55732,-2.85865 3.70132,-4.28798 6.432,-4.288 0.93865,2e-5 1.72798,0.17069 2.368,0.512 0.66131,0.34135 1.18398,0.83202 1.568,1.472 0.40531,0.61868 0.69331,1.37602 0.864,2.272 0.19198,0.87468 0.28798,1.85601 0.288,2.944 l 0,9.76"
       style="font-size:32px;-inkscape-font-specification:Raleway;fill:#ffffff"
       id="path3122" />
    <path
       d="m 268.90399,188.63843 c 0,-1.36532 0.23467,-2.71998 0.704,-4.064 0.49067,-1.36531 1.19467,-2.58131 2.112,-3.648 0.91733,-1.06664 2.048,-1.93064 3.392,-2.592 1.34399,-0.68264 2.86933,-1.02398 4.576,-1.024 2.02666,2e-5 3.75465,0.45869 5.184,1.376 1.45065,0.91736 2.51732,2.11202 3.2,3.584 l -1.76,1.088 c -0.36268,-0.74665 -0.81068,-1.37598 -1.344,-1.888 -0.51201,-0.51198 -1.06668,-0.92798 -1.664,-1.248 -0.59734,-0.31998 -1.21601,-0.54398 -1.856,-0.672 -0.64001,-0.14931 -1.26934,-0.22398 -1.888,-0.224 -1.36534,2e-5 -2.57067,0.27736 -3.616,0.832 -1.04534,0.55469 -1.93067,1.28002 -2.656,2.176 -0.704,0.89602 -1.23733,1.90935 -1.6,3.04 -0.36267,1.10935 -0.544,2.24001 -0.544,3.392 0,1.25868 0.21333,2.46401 0.64,3.616 0.448,1.15201 1.04533,2.17601 1.792,3.072 0.768,0.87467 1.664,1.57867 2.688,2.112 1.04533,0.512 2.17599,0.768 3.392,0.768 0.63999,0 1.29066,-0.0747 1.952,-0.224 0.68266,-0.17066 1.33332,-0.42666 1.952,-0.768 0.63999,-0.36266 1.22665,-0.79999 1.76,-1.312 0.53332,-0.53333 0.98132,-1.17333 1.344,-1.92 l 1.856,0.96 c -0.36268,0.85334 -0.87468,1.61067 -1.536,2.272 -0.66135,0.64 -1.39735,1.184 -2.208,1.632 -0.81068,0.448 -1.67468,0.78934 -2.592,1.024 -0.89601,0.23467 -1.78134,0.352 -2.656,0.352 -1.55734,0 -2.98667,-0.34133 -4.288,-1.024 -1.30134,-0.68266 -2.42133,-1.568 -3.36,-2.656 -0.93867,-1.10933 -1.67467,-2.35733 -2.208,-3.744 -0.512,-1.40799 -0.768,-2.83732 -0.768,-4.288"
       style="font-size:32px;-inkscape-font-specification:Raleway;fill:#ffffff"
       id="path3124" />
    <path
       d="m 305.6755,181.69443 c -0.64002,-0.72531 -1.49335,-1.31198 -2.56,-1.76 -1.06668,-0.44798 -2.28268,-0.67198 -3.648,-0.672 -2.00534,2e-5 -3.46668,0.38402 -4.384,1.152 -0.91734,0.74669 -1.37601,1.77069 -1.376,3.072 -10e-6,0.68268 0.11733,1.24802 0.352,1.696 0.25599,0.42668 0.63999,0.80002 1.152,1.12 0.51199,0.32002 1.16266,0.59735 1.952,0.832 0.81066,0.23468 1.75999,0.46935 2.848,0.704 1.21599,0.25601 2.30398,0.54401 3.264,0.864 0.98132,0.32001 1.81331,0.72535 2.496,1.216 0.68265,0.46935 1.20531,1.04534 1.568,1.728 0.36265,0.68268 0.54398,1.53601 0.544,2.56 -2e-5,1.04534 -0.20269,1.95201 -0.608,2.72 -0.40535,0.768 -0.97069,1.408 -1.696,1.92 -0.72535,0.512 -1.58935,0.896 -2.592,1.152 -1.00268,0.23467 -2.10135,0.352 -3.296,0.352 -3.52001,0 -6.56001,-1.09866 -9.12,-3.296 l 1.12,-1.824 c 0.40533,0.42667 0.88533,0.83201 1.44,1.216 0.57599,0.38401 1.20533,0.72534 1.888,1.024 0.70399,0.27734 1.45066,0.50134 2.24,0.672 0.78932,0.14934 1.62132,0.224 2.496,0.224 1.81332,0 3.22132,-0.32 4.224,-0.96 1.02398,-0.66133 1.53598,-1.65333 1.536,-2.976 -2e-5,-0.70399 -0.14935,-1.29066 -0.448,-1.76 -0.27735,-0.49066 -0.70402,-0.90666 -1.28,-1.248 -0.57602,-0.36266 -1.29068,-0.67199 -2.144,-0.928 -0.85335,-0.25599 -1.84535,-0.51199 -2.976,-0.768 -1.19468,-0.27732 -2.24001,-0.56532 -3.136,-0.864 -0.89601,-0.29865 -1.65334,-0.67199 -2.272,-1.12 -0.61867,-0.44799 -1.08801,-0.98132 -1.408,-1.6 -0.29867,-0.63998 -0.44801,-1.41865 -0.448,-2.336 -1e-5,-1.04531 0.19199,-1.97331 0.576,-2.784 0.40533,-0.83198 0.97066,-1.51464 1.696,-2.048 0.72533,-0.55464 1.57866,-0.97064 2.56,-1.248 0.98132,-0.29864 2.06932,-0.44798 3.264,-0.448 1.51465,2e-5 2.85865,0.23469 4.032,0.704 1.19465,0.44802 2.27198,1.08802 3.232,1.92 l -1.088,1.792"
       style="font-size:32px;-inkscape-font-specification:Raleway;fill:#ffffff"
       id="path3126" />
    <path
       d="m 325.16298,181.69443 c -0.64001,-0.72531 -1.49334,-1.31198 -2.56,-1.76 -1.06667,-0.44798 -2.28267,-0.67198 -3.648,-0.672 -2.00534,2e-5 -3.46667,0.38402 -4.384,1.152 -0.91733,0.74669 -1.376,1.77069 -1.376,3.072 0,0.68268 0.11733,1.24802 0.352,1.696 0.256,0.42668 0.64,0.80002 1.152,1.12 0.512,0.32002 1.16266,0.59735 1.952,0.832 0.81066,0.23468 1.76,0.46935 2.848,0.704 1.21599,0.25601 2.30399,0.54401 3.264,0.864 0.98132,0.32001 1.81332,0.72535 2.496,1.216 0.68265,0.46935 1.20532,1.04534 1.568,1.728 0.36265,0.68268 0.54399,1.53601 0.544,2.56 -10e-6,1.04534 -0.20268,1.95201 -0.608,2.72 -0.40535,0.768 -0.97068,1.408 -1.696,1.92 -0.72534,0.512 -1.58934,0.896 -2.592,1.152 -1.00267,0.23467 -2.10134,0.352 -3.296,0.352 -3.52,0 -6.56,-1.09866 -9.12,-3.296 l 1.12,-1.824 c 0.40534,0.42667 0.88533,0.83201 1.44,1.216 0.576,0.38401 1.20533,0.72534 1.888,1.024 0.704,0.27734 1.45066,0.50134 2.24,0.672 0.78933,0.14934 1.62133,0.224 2.496,0.224 1.81333,0 3.22132,-0.32 4.224,-0.96 1.02399,-0.66133 1.53599,-1.65333 1.536,-2.976 -10e-6,-0.70399 -0.14934,-1.29066 -0.448,-1.76 -0.27734,-0.49066 -0.70401,-0.90666 -1.28,-1.248 -0.57601,-0.36266 -1.29068,-0.67199 -2.144,-0.928 -0.85334,-0.25599 -1.84534,-0.51199 -2.976,-0.768 -1.19467,-0.27732 -2.24,-0.56532 -3.136,-0.864 -0.896,-0.29865 -1.65333,-0.67199 -2.272,-1.12 -0.61867,-0.44799 -1.088,-0.98132 -1.408,-1.6 -0.29866,-0.63998 -0.448,-1.41865 -0.448,-2.336 0,-1.04531 0.192,-1.97331 0.576,-2.784 0.40534,-0.83198 0.97067,-1.51464 1.696,-2.048 0.72533,-0.55464 1.57867,-0.97064 2.56,-1.248 0.98133,-0.29864 2.06933,-0.44798 3.264,-0.448 1.51466,2e-5 2.85866,0.23469 4.032,0.704 1.19466,0.44802 2.27199,1.08802 3.232,1.92 l -1.088,1.792"
       style="font-size:32px;-inkscape-font-specification:Raleway;fill:#ffffff"
       id="path3128" />
    <path
       d="m 343.35199,200.47843 c -0.78934,0 -1.52534,-0.128 -2.208,-0.384 -0.66134,-0.27733 -1.248,-0.65066 -1.76,-1.12 -0.49067,-0.46933 -0.87467,-1.01333 -1.152,-1.632 -0.27733,-0.63999 -0.416,-1.32266 -0.416,-2.048 0,-0.72533 0.17067,-1.39733 0.512,-2.016 0.34133,-0.61866 0.82133,-1.15199 1.44,-1.6 0.61866,-0.44799 1.35466,-0.78932 2.208,-1.024 0.85333,-0.25599 1.79199,-0.38399 2.816,-0.384 0.85333,1e-5 1.71732,0.0747 2.592,0.224 0.87466,0.14934 1.65332,0.36268 2.336,0.64 l 0,-1.504 c -10e-6,-1.47199 -0.41601,-2.63465 -1.248,-3.488 -0.83201,-0.87465 -1.98401,-1.31198 -3.456,-1.312 -0.85334,2e-5 -1.72801,0.17068 -2.624,0.512 -0.896,0.34135 -1.80267,0.83202 -2.72,1.472 l -0.768,-1.44 c 2.15466,-1.45065 4.24533,-2.17598 6.272,-2.176 2.09066,2e-5 3.73332,0.58669 4.928,1.76 1.19465,1.17335 1.79199,2.79468 1.792,4.864 l 0,7.52 c -10e-6,0.59734 0.26665,0.896 0.8,0.896 l 0,1.92 c -0.36268,0.064 -0.64001,0.096 -0.832,0.096 -0.55468,0 -0.99201,-0.13866 -1.312,-0.416 -0.29868,-0.27733 -0.45868,-0.66133 -0.48,-1.152 l -0.064,-1.312 c -0.76801,1.00267 -1.73868,1.77067 -2.912,2.304 -1.15201,0.53334 -2.40001,0.8 -3.744,0.8 m 0.512,-1.664 c 1.13066,0 2.16532,-0.21333 3.104,-0.64 0.95999,-0.42666 1.68532,-0.992 2.176,-1.696 0.19199,-0.19199 0.33065,-0.39466 0.416,-0.608 0.10665,-0.23466 0.15999,-0.44799 0.16,-0.64 l 0,-2.72 c -0.72534,-0.27732 -1.48268,-0.49066 -2.272,-0.64 -0.76801,-0.14932 -1.55734,-0.22399 -2.368,-0.224 -1.53601,1e-5 -2.784,0.32001 -3.744,0.96 -0.96,0.64001 -1.44,1.48267 -1.44,2.528 0,0.51201 0.096,0.99201 0.288,1.44 0.21333,0.44801 0.49066,0.84267 0.832,1.184 0.36266,0.32 0.78933,0.576 1.28,0.768 0.49066,0.192 1.01333,0.288 1.568,0.288"
       style="font-size:32px;-inkscape-font-specification:Raleway;fill:#ffffff"
       id="path3130" />
    <path
       d="m 370.66351,200.15843 -2.176,0 0,-9.312 c -2e-5,-1.98399 -0.29868,-3.42399 -0.896,-4.32 -0.57601,-0.89598 -1.47201,-1.34398 -2.688,-1.344 -0.64001,2e-5 -1.28001,0.11735 -1.92,0.352 -0.64001,0.23468 -1.23734,0.56535 -1.792,0.992 -0.53334,0.42668 -1.01334,0.93868 -1.44,1.536 -0.42667,0.57601 -0.73601,1.20535 -0.928,1.888 l 0,10.208 -2.176,0 0,-16.672 1.984,0 0,3.776 c 0.68266,-1.21598 1.65333,-2.19732 2.912,-2.944 1.27999,-0.74665 2.66666,-1.11998 4.16,-1.12 0.91732,2e-5 1.69599,0.17069 2.336,0.512 0.63998,0.34135 1.15198,0.82135 1.536,1.44 0.38398,0.61868 0.66132,1.37602 0.832,2.272 0.17065,0.89601 0.25598,1.88801 0.256,2.976 l 0,9.76"
       style="font-size:32px;-inkscape-font-specification:Raleway;fill:#ffffff"
       id="path3132" />
    <path
       d="m 382.233,200.47843 c -1.15201,0 -2.21868,-0.23466 -3.2,-0.704 -0.98134,-0.49066 -1.82401,-1.13066 -2.528,-1.92 -0.70401,-0.78933 -1.25867,-1.69599 -1.664,-2.72 -0.384,-1.04533 -0.576,-2.13332 -0.576,-3.264 0,-1.17332 0.192,-2.28265 0.576,-3.328 0.38399,-1.06665 0.90666,-1.99465 1.568,-2.784 0.68266,-0.78932 1.48266,-1.40798 2.4,-1.856 0.93866,-0.46931 1.96266,-0.70398 3.072,-0.704 1.40799,2e-5 2.65599,0.37335 3.744,1.12 1.08798,0.72535 1.94132,1.61068 2.56,2.656 l 0,-10.176 2.176,0 0,20.544 c -2e-5,0.59734 0.25598,0.896 0.768,0.896 l 0,1.92 c -0.32002,0.064 -0.57602,0.096 -0.768,0.096 -0.51202,0 -0.96002,-0.16 -1.344,-0.48 -0.38402,-0.34133 -0.57602,-0.74666 -0.576,-1.216 l 0,-1.632 c -0.66135,1.088 -1.55735,1.952 -2.688,2.592 -1.13068,0.64 -2.30401,0.96 -3.52,0.96 m 0.48,-1.92 c 0.53332,0 1.09865,-0.10666 1.696,-0.32 0.61865,-0.21333 1.19465,-0.50133 1.728,-0.864 0.53332,-0.38399 0.98132,-0.82133 1.344,-1.312 0.38398,-0.51199 0.61865,-1.05599 0.704,-1.632 l 0,-5.152 c -0.21335,-0.57599 -0.52268,-1.10932 -0.928,-1.6 -0.40535,-0.51199 -0.87468,-0.95998 -1.408,-1.344 -0.51202,-0.38398 -1.06668,-0.68265 -1.664,-0.896 -0.59735,-0.21332 -1.18401,-0.31998 -1.76,-0.32 -0.89601,2e-5 -1.70668,0.19202 -2.432,0.576 -0.72534,0.38402 -1.35468,0.89602 -1.888,1.536 -0.51201,0.61868 -0.90667,1.33335 -1.184,2.144 -0.27734,0.81068 -0.41601,1.64268 -0.416,2.496 -10e-6,0.89601 0.15999,1.74934 0.48,2.56 0.31999,0.81067 0.75733,1.52534 1.312,2.144 0.55466,0.59734 1.20532,1.07734 1.952,1.44 0.76799,0.36267 1.58932,0.544 2.464,0.544"
       style="font-size:32px;-inkscape-font-specification:Raleway;fill:#ffffff"
       id="path3134" />
    <path
       d="m 401.3605,197.31043 c 0.46933,0.32 1.06667,0.59734 1.792,0.832 0.74667,0.23467 1.57867,0.352 2.496,0.352 1.152,0 2.06933,-0.20266 2.752,-0.608 0.70399,-0.42666 1.23733,-1.04533 1.6,-1.856 0.36266,-0.81066 0.59733,-1.80266 0.704,-2.976 0.10666,-1.19466 0.15999,-2.54932 0.16,-4.064 l 0,-11.552 2.24,0 0,11.552 c -10e-6,1.72801 -0.0853,3.30668 -0.256,4.736 -0.14934,1.40801 -0.48001,2.61334 -0.992,3.616 -0.51201,1.00267 -1.25867,1.78134 -2.24,2.336 -0.98134,0.55467 -2.304,0.832 -3.968,0.832 -1.92,0 -3.56267,-0.46933 -4.928,-1.408 l 0.64,-1.792"
       style="font-size:32px;-inkscape-font-specification:Raleway;fill:#ffffff"
       id="path3136" />
    <path
       d="m 431.82549,181.69443 c -0.64001,-0.72531 -1.49335,-1.31198 -2.56,-1.76 -1.06668,-0.44798 -2.28268,-0.67198 -3.648,-0.672 -2.00534,2e-5 -3.46667,0.38402 -4.384,1.152 -0.91734,0.74669 -1.376,1.77069 -1.376,3.072 0,0.68268 0.11733,1.24802 0.352,1.696 0.256,0.42668 0.64,0.80002 1.152,1.12 0.51199,0.32002 1.16266,0.59735 1.952,0.832 0.81066,0.23468 1.75999,0.46935 2.848,0.704 1.21599,0.25601 2.30399,0.54401 3.264,0.864 0.98132,0.32001 1.81332,0.72535 2.496,1.216 0.68265,0.46935 1.20532,1.04534 1.568,1.728 0.36265,0.68268 0.54398,1.53601 0.544,2.56 -2e-5,1.04534 -0.20268,1.95201 -0.608,2.72 -0.40535,0.768 -0.97068,1.408 -1.696,1.92 -0.72535,0.512 -1.58935,0.896 -2.592,1.152 -1.00268,0.23467 -2.10134,0.352 -3.296,0.352 -3.52001,0 -6.56,-1.09866 -9.12,-3.296 l 1.12,-1.824 c 0.40533,0.42667 0.88533,0.83201 1.44,1.216 0.576,0.38401 1.20533,0.72534 1.888,1.024 0.70399,0.27734 1.45066,0.50134 2.24,0.672 0.78933,0.14934 1.62132,0.224 2.496,0.224 1.81332,0 3.22132,-0.32 4.224,-0.96 1.02399,-0.66133 1.53598,-1.65333 1.536,-2.976 -2e-5,-0.70399 -0.14935,-1.29066 -0.448,-1.76 -0.27735,-0.49066 -0.70401,-0.90666 -1.28,-1.248 -0.57601,-0.36266 -1.29068,-0.67199 -2.144,-0.928 -0.85334,-0.25599 -1.84534,-0.51199 -2.976,-0.768 -1.19467,-0.27732 -2.24001,-0.56532 -3.136,-0.864 -0.896,-0.29865 -1.65334,-0.67199 -2.272,-1.12 -0.61867,-0.44799 -1.088,-0.98132 -1.408,-1.6 -0.29867,-0.63998 -0.448,-1.41865 -0.448,-2.336 0,-1.04531 0.192,-1.97331 0.576,-2.784 0.40533,-0.83198 0.97066,-1.51464 1.696,-2.048 0.72533,-0.55464 1.57866,-0.97064 2.56,-1.248 0.98133,-0.29864 2.06933,-0.44798 3.264,-0.448 1.51466,2e-5 2.85865,0.23469 4.032,0.704 1.19465,0.44802 2.27198,1.08802 3.232,1.92 l -1.088,1.792"
       style="font-size:32px;-inkscape-font-specification:Raleway;fill:#ffffff"
       id="path3138" />
    <path
       d="m 446.2705,200.15843 0,-22.72 9.408,0 c 0.98132,2e-5 1.87732,0.21336 2.688,0.64 0.83198,0.40536 1.54665,0.94936 2.144,1.632 0.59731,0.66136 1.06665,1.41869 1.408,2.272 0.34131,0.85335 0.51198,1.71735 0.512,2.592 -2e-5,0.93868 -0.16002,1.84535 -0.48,2.72 -0.32002,0.85335 -0.76802,1.61068 -1.344,2.272 -0.57602,0.66135 -1.26935,1.19468 -2.08,1.6 -0.78935,0.40534 -1.67468,0.60801 -2.656,0.608 l -7.36,0 0,8.384 -2.24,0 m 2.24,-10.368 7.264,0 c 0.66132,1e-5 1.25865,-0.13865 1.792,-0.416 0.55465,-0.29865 1.02398,-0.68265 1.408,-1.152 0.38398,-0.49065 0.68265,-1.04532 0.896,-1.664 0.21331,-0.63998 0.31998,-1.30132 0.32,-1.984 -2e-5,-0.70398 -0.12802,-1.36531 -0.384,-1.984 -0.23469,-0.63998 -0.56535,-1.19465 -0.992,-1.664 -0.40535,-0.46931 -0.89602,-0.83198 -1.472,-1.088 -0.55468,-0.27731 -1.14135,-0.41598 -1.76,-0.416 l -7.072,0 0,10.368"
       style="font-size:32px;-inkscape-font-specification:Raleway;fill:#ffffff"
       id="path3140" />
    <path
       d="m 466.19548,200.15843 0,-22.72 9.6,0 c 0.98132,2e-5 1.87732,0.21336 2.688,0.64 0.83199,0.40536 1.54665,0.94936 2.144,1.632 0.59732,0.66136 1.05599,1.41869 1.376,2.272 0.34132,0.85335 0.51199,1.71735 0.512,2.592 -1e-5,0.83202 -0.12801,1.63202 -0.384,2.4 -0.23468,0.74668 -0.57601,1.42935 -1.024,2.048 -0.42668,0.59735 -0.94935,1.10935 -1.568,1.536 -0.61868,0.40534 -1.31201,0.68268 -2.08,0.832 l 5.568,8.768 -2.528,0 -5.344,-8.384 -6.72,0 0,8.384 -2.24,0 m 2.24,-10.368 7.424,0 c 0.66132,1e-5 1.25866,-0.13865 1.792,-0.416 0.55466,-0.29865 1.02399,-0.69332 1.408,-1.184 0.38399,-0.49065 0.68265,-1.04532 0.896,-1.664 0.21332,-0.61865 0.31999,-1.26932 0.32,-1.952 -1e-5,-0.68265 -0.12801,-1.33331 -0.384,-1.952 -0.23468,-0.63998 -0.56534,-1.19465 -0.992,-1.664 -0.40534,-0.46931 -0.89601,-0.84264 -1.472,-1.12 -0.55468,-0.27731 -1.14134,-0.41598 -1.76,-0.416 l -7.232,0 0,10.368"
       style="font-size:32px;-inkscape-font-specification:Raleway;fill:#ffffff"
       id="path3142" />
    <path
       d="m 496.2725,200.31843 c -1.57867,0 -3.02934,-0.32 -4.352,-0.96 -1.30134,-0.66133 -2.42134,-1.52533 -3.36,-2.592 -0.93867,-1.08799 -1.664,-2.32533 -2.176,-3.712 -0.512,-1.38666 -0.768,-2.80532 -0.768,-4.256 0,-1.51465 0.26667,-2.96532 0.8,-4.352 0.55467,-1.38665 1.312,-2.61331 2.272,-3.68 0.96,-1.06664 2.09066,-1.90931 3.392,-2.528 1.30133,-0.63998 2.70933,-0.95998 4.224,-0.96 1.57866,2e-5 3.01865,0.34136 4.32,1.024 1.32265,0.66136 2.44265,1.53602 3.36,2.624 0.93865,1.08802 1.66398,2.32535 2.176,3.712 0.51198,1.36535 0.76798,2.76268 0.768,4.192 -2e-5,1.51468 -0.27735,2.96534 -0.832,4.352 -0.53335,1.38667 -1.28002,2.61334 -2.24,3.68 -0.93868,1.04534 -2.05868,1.888 -3.36,2.528 -1.30135,0.61867 -2.70934,0.928 -4.224,0.928 m -8.416,-11.52 c 0,1.23735 0.20267,2.43201 0.608,3.584 0.40533,1.13068 0.98133,2.14401 1.728,3.04 0.74666,0.87467 1.632,1.57867 2.656,2.112 1.02399,0.512 2.16533,0.768 3.424,0.768 1.27999,0 2.44266,-0.27733 3.488,-0.832 1.04532,-0.55466 1.93065,-1.27999 2.656,-2.176 0.72532,-0.89599 1.27998,-1.90932 1.664,-3.04 0.40532,-1.13066 0.60798,-2.28265 0.608,-3.456 -2e-5,-1.23732 -0.21335,-2.42132 -0.64,-3.552 -0.40535,-1.15198 -0.98135,-2.16531 -1.728,-3.04 -0.74668,-0.87465 -1.63201,-1.56798 -2.656,-2.08 -1.02401,-0.53331 -2.15468,-0.79998 -3.392,-0.8 -1.28001,2e-5 -2.44267,0.27736 -3.488,0.832 -1.04534,0.53335 -1.93067,1.24802 -2.656,2.144 -0.72534,0.89602 -1.29067,1.90935 -1.696,3.04 -0.384,1.13068 -0.576,2.28268 -0.576,3.456"
       style="font-size:32px;-inkscape-font-specification:Raleway;fill:#ffffff"
       id="path3144" />
  </g>
  <g
     transform="matrix(3.0981432,0,0,3.0981432,10.480563,13.242114)"
     id="g3949" />
  <g
     transform="matrix(3.0981432,0,0,3.0981432,10.480563,13.242114)"
     id="g3951" />
  <g
     transform="matrix(3.0981432,0,0,3.0981432,10.480563,13.242114)"
     id="g3953" />
  <g
     transform="matrix(3.0981432,0,0,3.0981432,10.480563,13.242114)"
     id="g3955" />
  <g
     transform="matrix(3.0981432,0,0,3.0981432,10.480563,13.242114)"
     id="g3957" />
  <g
     transform="matrix(3.0981432,0,0,3.0981432,10.480563,13.242114)"
     id="g3959" />
  <g
     transform="matrix(3.0981432,0,0,3.0981432,10.480563,13.242114)"
     id="g3961" />
  <g
     transform="matrix(3.0981432,0,0,3.0981432,10.480563,13.242114)"
     id="g3963" />
  <g
     transform="matrix(3.0981432,0,0,3.0981432,10.480563,13.242114)"
     id="g3965" />
  <g
     transform="matrix(3.0981432,0,0,3.0981432,10.480563,13.242114)"
     id="g3967" />
  <g
     transform="matrix(3.0981432,0,0,3.0981432,10.480563,13.242114)"
     id="g3969" />
  <g
     transform="matrix(3.0981432,0,0,3.0981432,10.480563,13.242114)"
     id="g3971" />
  <g
     transform="matrix(3.0981432,0,0,3.0981432,10.480563,13.242114)"
     id="g3973" />
  <g
     transform="matrix(3.0981432,0,0,3.0981432,10.480563,13.242114)"
     id="g3975" />
  <g
     transform="matrix(3.0981432,0,0,3.0981432,10.480563,13.242114)"
     id="g3977" />
  <g
     transform="matrix(4.591418,0,0,4.591418,674.20723,-201.0887)"
     id="g3195" />
  <g
     transform="matrix(4.591418,0,0,4.591418,674.20723,-201.0887)"
     id="g3197" />
  <g
     transform="matrix(4.591418,0,0,4.591418,674.20723,-201.0887)"
     id="g3199" />
  <g
     transform="matrix(4.591418,0,0,4.591418,674.20723,-201.0887)"
     id="g3201" />
  <g
     transform="matrix(4.591418,0,0,4.591418,674.20723,-201.0887)"
     id="g3203" />
  <g
     transform="matrix(4.591418,0,0,4.591418,674.20723,-201.0887)"
     id="g3205" />
  <g
     transform="matrix(4.591418,0,0,4.591418,674.20723,-201.0887)"
     id="g3207" />
  <g
     transform="matrix(4.591418,0,0,4.591418,674.20723,-201.0887)"
     id="g3209" />
  <g
     transform="matrix(4.591418,0,0,4.591418,674.20723,-201.0887)"
     id="g3211" />
  <g
     transform="matrix(4.591418,0,0,4.591418,674.20723,-201.0887)"
     id="g3213" />
  <g
     transform="matrix(4.591418,0,0,4.591418,674.20723,-201.0887)"
     id="g3215" />
  <g
     transform="matrix(4.591418,0,0,4.591418,674.20723,-201.0887)"
     id="g3217" />
  <g
     transform="matrix(4.591418,0,0,4.591418,674.20723,-201.0887)"
     id="g3219" />
  <g
     transform="matrix(4.591418,0,0,4.591418,674.20723,-201.0887)"
     id="g3221" />
  <g
     transform="matrix(4.591418,0,0,4.591418,674.20723,-201.0887)"
     id="g3223" />
</svg>
