<?xml version="1.0" encoding="UTF-8" standalone="no"?>
<svg xmlns:rdf="http://www.w3.org/1999/02/22-rdf-syntax-ns#" xmlns="http://www.w3.org/2000/svg" height="37" width="199" version="1.1" xmlns:cc="http://creativecommons.org/ns#" xmlns:dc="http://purl.org/dc/elements/1.1/">
<path fill="#48b027" d="m5.78 1.75l10.8 11.2 10.8 11v-22.2l-21.6-0.05zm10.1 4.47h7.8v7.78l-3.9-3.8-3.9-3.98z"/>
<path fill="#42a2ce" d="m1.25 1.72v26.1h26l-13-13.1-13-13zm4.5 11.4l5.05 5.1 5.1 5.1h-10.2l0.05-10.2z"/>
<g fill="#c8c8c8">
<path d="m55.3 8.25c-0.68-0.771-1.59-1.39-2.72-1.87-1.13-0.476-2.43-0.714-3.88-0.714-2.13 0.0000222-3.68 0.408-4.66 1.22-0.975 0.793-1.46 1.88-1.46 3.26-0.000004 0.725 0.125 1.33 0.374 1.8 0.272 0.453 0.68 0.85 1.22 1.19 0.544 0.34 1.24 0.635 2.07 0.884 0.861 0.249 1.87 0.499 3.03 0.748 1.29 0.272 2.45 0.578 3.47 0.918 1.04 0.34 1.93 0.771 2.65 1.29 0.725 0.499 1.28 1.11 1.67 1.84 0.385 0.725 0.578 1.63 0.578 2.72-0.000019 1.11-0.215 2.07-0.646 2.89-0.431 0.816-1.03 1.5-1.8 2.04-0.771 0.544-1.69 0.952-2.75 1.22-1.07 0.249-2.23 0.374-3.5 0.374-3.74 0-6.97-1.17-9.69-3.5l1.19-1.94c0.431 0.453 0.941 0.884 1.53 1.29 0.612 0.408 1.28 0.771 2.01 1.09 0.748 0.295 1.54 0.533 2.38 0.714 0.839 0.159 1.72 0.238 2.65 0.238 1.93 0.000002 3.42-0.34 4.49-1.02 1.09-0.703 1.63-1.76 1.63-3.16-0.000017-0.748-0.159-1.37-0.476-1.87-0.295-0.521-0.748-0.963-1.36-1.33-0.612-0.385-1.37-0.714-2.28-0.986-0.907-0.272-1.96-0.544-3.16-0.816-1.27-0.295-2.38-0.601-3.33-0.918-0.952-0.317-1.76-0.714-2.41-1.19-0.657-0.476-1.16-1.04-1.5-1.7-0.317-0.68-0.476-1.51-0.476-2.48-0.000002-1.11 0.204-2.1 0.612-2.96 0.431-0.884 1.03-1.61 1.8-2.18 0.771-0.589 1.68-1.03 2.72-1.33 1.04-0.317 2.2-0.476 3.47-0.476 1.61 0.0000243 3.04 0.249 4.28 0.748 1.27 0.476 2.41 1.16 3.43 2.04l-1.16 1.9"/>
<path d="m61.3 27.9v-17.7h2.31v17.7h-2.31m0-21.4v-3.4h2.31v3.4h-2.31"/>
<path d="m68.9 3.04h2.31v20.8c-0.000005 0.657 0.181 1.18 0.544 1.56 0.363 0.363 0.873 0.544 1.53 0.544 0.249 0.000002 0.544-0.034 0.884-0.102s0.657-0.159 0.952-0.272l0.408 1.87c-0.431 0.181-0.963 0.329-1.6 0.442-0.612 0.113-1.14 0.17-1.6 0.17-1.07 0-1.9-0.295-2.52-0.884-0.612-0.612-0.918-1.46-0.918-2.55v-21.6"/>
<path d="m90.7 27.9-6.53-9.08-3.81 3.54v5.54h-2.31v-24.8h2.31v16.9l9.96-9.72h2.62l-7.24 7.24 7.51 10.4h-2.52"/>
<path d="m97 33.3c0.181 0.0227 0.351 0.034 0.51 0.034 0.181 0.0227 0.351 0.034 0.51 0.034 0.408-0.000005 0.725-0.0567 0.952-0.17 0.249-0.113 0.487-0.363 0.714-0.748s0.476-0.941 0.748-1.67c0.295-0.725 0.703-1.7 1.22-2.92l-7.72-17.7h2.38l6.56 15.6 6.09-15.6h2.21l-9.18 22.8c-0.249 0.657-0.669 1.22-1.26 1.7-0.567 0.499-1.35 0.748-2.35 0.748-0.227-0.000007-0.442-0.0113-0.646-0.034-0.204-0.000007-0.453-0.0227-0.748-0.068v-2.04"/>
<path d="m115 27.9v-24.1h10c1.04 0.0000242 1.99 0.227 2.86 0.68 0.884 0.431 1.64 1.01 2.28 1.73 0.635 0.703 1.13 1.51 1.5 2.41 0.363 0.907 0.544 1.82 0.544 2.75-0.00002 0.997-0.17 1.96-0.51 2.89-0.34 0.907-0.816 1.71-1.43 2.41-0.612 0.703-1.35 1.27-2.21 1.7-0.839 0.431-1.78 0.646-2.82 0.646h-7.82v8.91h-2.38m2.38-11h7.72c0.703 0.000011 1.34-0.147 1.9-0.442 0.589-0.317 1.09-0.725 1.5-1.22 0.408-0.521 0.725-1.11 0.952-1.77 0.227-0.68 0.34-1.38 0.34-2.11-0.00001-0.748-0.136-1.45-0.408-2.11-0.249-0.68-0.601-1.27-1.05-1.77-0.431-0.499-0.952-0.884-1.56-1.16-0.589-0.295-1.21-0.442-1.87-0.442h-7.51v11"/>
<path d="m144 12.2c-1.56 0.0454-2.92 0.476-4.08 1.29-1.16 0.816-1.97 1.94-2.45 3.37v11h-2.31v-17.7h2.18v4.25c0.657-1.36 1.54-2.43 2.65-3.2 1.11-0.771 2.3-1.16 3.57-1.16 0.181 0.000018 0.329 0.0114 0.442 0.034v2.11"/>
<path d="m154 28.2c-1.29 0-2.48-0.238-3.57-0.714-1.07-0.499-1.99-1.17-2.79-2.01-0.793-0.861-1.42-1.85-1.87-2.96-0.431-1.11-0.646-2.3-0.646-3.57 0-1.25 0.215-2.41 0.646-3.5 0.453-1.11 1.07-2.07 1.84-2.89 0.793-0.839 1.73-1.5 2.82-1.97 1.09-0.499 2.27-0.748 3.54-0.748 1.29 0.000018 2.47 0.249 3.54 0.748 1.09 0.476 2.02 1.13 2.79 1.97 0.771 0.839 1.37 1.8 1.8 2.89 0.431 1.09 0.646 2.24 0.646 3.47-0.00001 0.181-0.00001 0.363 0 0.544-0.00001 0.181-0.0114 0.306-0.034 0.374h-15.2c0.068 0.952 0.283 1.84 0.646 2.65 0.385 0.793 0.873 1.48 1.46 2.07 0.589 0.589 1.26 1.05 2.01 1.39 0.771 0.317 1.59 0.476 2.45 0.476 0.567 0.000002 1.13-0.0793 1.7-0.238 0.567-0.159 1.09-0.374 1.56-0.646 0.476-0.272 0.907-0.601 1.29-0.986 0.385-0.408 0.68-0.85 0.884-1.33l2.01 0.544c-0.272 0.657-0.657 1.26-1.16 1.8-0.499 0.521-1.08 0.986-1.73 1.39-0.657 0.385-1.38 0.68-2.18 0.884-0.793 0.227-1.62 0.34-2.48 0.34m6.53-10.1c-0.068-0.952-0.295-1.81-0.68-2.58-0.363-0.793-0.839-1.47-1.43-2.04-0.567-0.567-1.24-1.01-2.01-1.33-0.748-0.317-1.55-0.476-2.41-0.476-0.861 0.000017-1.68 0.159-2.45 0.476-0.771 0.317-1.45 0.759-2.04 1.33-0.567 0.567-1.03 1.25-1.39 2.04-0.34 0.793-0.544 1.65-0.612 2.58h13"/>
<path d="m173 28.2c-1.38 0-2.73-0.227-4.05-0.68-1.31-0.453-2.45-1.11-3.4-1.97l1.05-1.56c0.997 0.816 2.01 1.43 3.03 1.84 1.04 0.408 2.15 0.612 3.33 0.612 1.43 0.000002 2.56-0.283 3.4-0.85 0.861-0.589 1.29-1.42 1.29-2.48-0.00002-0.499-0.113-0.907-0.34-1.22-0.227-0.34-0.567-0.635-1.02-0.884-0.431-0.249-0.986-0.465-1.67-0.646-0.657-0.204-1.43-0.408-2.31-0.612-1.02-0.249-1.9-0.499-2.65-0.748-0.748-0.249-1.37-0.533-1.87-0.85-0.476-0.317-0.839-0.703-1.09-1.16-0.227-0.476-0.34-1.07-0.34-1.77-0.00001-0.884 0.17-1.67 0.51-2.35 0.363-0.68 0.839-1.24 1.43-1.67 0.612-0.453 1.31-0.793 2.11-1.02 0.816-0.227 1.68-0.34 2.58-0.34 1.36 0.000018 2.6 0.227 3.71 0.68 1.11 0.431 2.01 1.01 2.69 1.73l-1.12 1.36c-0.657-0.68-1.46-1.19-2.41-1.53-0.929-0.34-1.9-0.51-2.92-0.51-0.612 0.000017-1.18 0.068-1.7 0.204-0.521 0.113-0.986 0.306-1.39 0.578-0.385 0.272-0.691 0.623-0.918 1.05-0.227 0.408-0.34 0.895-0.34 1.46-0.00001 0.476 0.0793 0.861 0.238 1.16 0.159 0.295 0.419 0.555 0.782 0.782 0.363 0.204 0.816 0.397 1.36 0.578 0.567 0.159 1.25 0.329 2.04 0.51 1.13 0.272 2.13 0.544 2.99 0.816 0.861 0.272 1.58 0.589 2.14 0.952 0.589 0.363 1.03 0.805 1.33 1.33 0.295 0.521 0.442 1.16 0.442 1.9-0.00002 1.63-0.623 2.92-1.87 3.88-1.25 0.952-2.92 1.43-5.03 1.43"/>
<path d="m189 28.2c-1.38 0-2.73-0.227-4.05-0.68-1.31-0.453-2.45-1.11-3.4-1.97l1.05-1.56c0.997 0.816 2.01 1.43 3.03 1.84 1.04 0.408 2.15 0.612 3.33 0.612 1.43 0.000002 2.56-0.283 3.4-0.85 0.861-0.589 1.29-1.42 1.29-2.48-0.00001-0.499-0.113-0.907-0.34-1.22-0.227-0.34-0.567-0.635-1.02-0.884-0.431-0.249-0.986-0.465-1.67-0.646-0.657-0.204-1.43-0.408-2.31-0.612-1.02-0.249-1.9-0.499-2.65-0.748-0.748-0.249-1.37-0.533-1.87-0.85-0.476-0.317-0.839-0.703-1.09-1.16-0.227-0.476-0.34-1.07-0.34-1.77 0-0.884 0.17-1.67 0.51-2.35 0.363-0.68 0.839-1.24 1.43-1.67 0.612-0.453 1.31-0.793 2.11-1.02 0.816-0.227 1.68-0.34 2.58-0.34 1.36 0.000018 2.6 0.227 3.71 0.68 1.11 0.431 2.01 1.01 2.69 1.73l-1.12 1.36c-0.657-0.68-1.46-1.19-2.41-1.53-0.929-0.34-1.9-0.51-2.92-0.51-0.612 0.000017-1.18 0.068-1.7 0.204-0.521 0.113-0.986 0.306-1.39 0.578-0.385 0.272-0.691 0.623-0.918 1.05-0.227 0.408-0.34 0.895-0.34 1.46 0 0.476 0.0793 0.861 0.238 1.16 0.159 0.295 0.419 0.555 0.782 0.782 0.363 0.204 0.816 0.397 1.36 0.578 0.567 0.159 1.25 0.329 2.04 0.51 1.13 0.272 2.13 0.544 2.99 0.816 0.861 0.272 1.58 0.589 2.14 0.952 0.589 0.363 1.03 0.805 1.33 1.33 0.295 0.521 0.442 1.16 0.442 1.9-0.00001 1.63-0.623 2.92-1.87 3.88-1.25 0.952-2.92 1.43-5.03 1.43"/>
</g>
</svg>

