<?xml version="1.0" encoding="UTF-8" standalone="no"?>
<!-- Created with Inkscape (http://www.inkscape.org/) -->

<svg
   xmlns:dc="http://purl.org/dc/elements/1.1/"
   xmlns:cc="http://creativecommons.org/ns#"
   xmlns:rdf="http://www.w3.org/1999/02/22-rdf-syntax-ns#"
   xmlns:svg="http://www.w3.org/2000/svg"
   xmlns="http://www.w3.org/2000/svg"
   xmlns:sodipodi="http://sodipodi.sourceforge.net/DTD/sodipodi-0.dtd"
   xmlns:inkscape="http://www.inkscape.org/namespaces/inkscape"
   id="svg3055"
   version="1.1"
   inkscape:version="0.92.3 (2405546, 2018-03-11)"
   width="540"
   height="270"
   sodipodi:docname="multi-step-checkout.svg">
  <metadata
     id="metadata3061">
    <rdf:RDF>
      <cc:Work
         rdf:about="">
        <dc:format>image/svg+xml</dc:format>
        <dc:type
           rdf:resource="http://purl.org/dc/dcmitype/StillImage" />
        <dc:title></dc:title>
      </cc:Work>
    </rdf:RDF>
  </metadata>
  <defs
     id="defs3059" />
  <sodipodi:namedview
     pagecolor="#ffffff"
     bordercolor="#666666"
     borderopacity="1"
     objecttolerance="10"
     gridtolerance="10"
     guidetolerance="10"
     inkscape:pageopacity="0"
     inkscape:pageshadow="2"
     inkscape:window-width="2558"
     inkscape:window-height="1399"
     id="namedview3057"
     showgrid="false"
     inkscape:zoom="1.9259259"
     inkscape:cx="434.4247"
     inkscape:cy="136.78618"
     inkscape:window-x="0"
     inkscape:window-y="39"
     inkscape:window-maximized="1"
     inkscape:current-layer="svg3055" />
  <rect
     style="opacity:1;color:#000000;fill:#5287df;fill-opacity:1;fill-rule:nonzero;stroke:#333333;stroke-width:0;stroke-linecap:round;stroke-linejoin:round;stroke-miterlimit:4;stroke-opacity:0.94117647;stroke-dasharray:none;stroke-dashoffset:0;marker:none;visibility:visible;display:inline;overflow:visible;enable-background:accumulate"
     id="rect3065"
     width="540"
     height="270"
     x="0"
     y="0" />
  <g
     transform="matrix(3.0981432,0,0,3.0981432,10.480563,13.242114)"
     id="g3949" />
  <g
     transform="matrix(3.0981432,0,0,3.0981432,10.480563,13.242114)"
     id="g3951" />
  <g
     transform="matrix(3.0981432,0,0,3.0981432,10.480563,13.242114)"
     id="g3953" />
  <g
     transform="matrix(3.0981432,0,0,3.0981432,10.480563,13.242114)"
     id="g3955" />
  <g
     transform="matrix(3.0981432,0,0,3.0981432,10.480563,13.242114)"
     id="g3957" />
  <g
     transform="matrix(3.0981432,0,0,3.0981432,10.480563,13.242114)"
     id="g3959" />
  <g
     transform="matrix(3.0981432,0,0,3.0981432,10.480563,13.242114)"
     id="g3961" />
  <g
     transform="matrix(3.0981432,0,0,3.0981432,10.480563,13.242114)"
     id="g3963" />
  <g
     transform="matrix(3.0981432,0,0,3.0981432,10.480563,13.242114)"
     id="g3965" />
  <g
     transform="matrix(3.0981432,0,0,3.0981432,10.480563,13.242114)"
     id="g3967" />
  <g
     transform="matrix(3.0981432,0,0,3.0981432,10.480563,13.242114)"
     id="g3969" />
  <g
     transform="matrix(3.0981432,0,0,3.0981432,10.480563,13.242114)"
     id="g3971" />
  <g
     transform="matrix(3.0981432,0,0,3.0981432,10.480563,13.242114)"
     id="g3973" />
  <g
     transform="matrix(3.0981432,0,0,3.0981432,10.480563,13.242114)"
     id="g3975" />
  <g
     transform="matrix(3.0981432,0,0,3.0981432,10.480563,13.242114)"
     id="g3977" />
  <text
     xml:space="preserve"
     style="font-style:normal;font-weight:normal;font-size:40px;line-height:1.25;font-family:sans-serif;letter-spacing:0px;word-spacing:0px;fill:#000000;fill-opacity:1;stroke:none"
     x="89.302254"
     y="149.46153"
     id="text2542"><tspan
       sodipodi:role="line"
       id="tspan2540"
       x="89.302254"
       y="149.46153"
       style="font-style:normal;font-variant:normal;font-weight:normal;font-stretch:normal;font-size:32px;font-family:Raleway;-inkscape-font-specification:Raleway;fill:#ffffff"
       dy="11.839992">WooCommerce </tspan><tspan
       sodipodi:role="line"
       x="89.302254"
       y="199.46153"
       id="tspan2544"
       style="font-style:normal;font-variant:normal;font-weight:normal;font-stretch:normal;font-size:32px;font-family:Raleway;-inkscape-font-specification:Raleway;fill:#ffffff">Multi-Step Checkout Pro</tspan></text>
  <g
     id="g3086"
     transform="matrix(0.16562717,0,0,0.16562717,342.71362,44.829879)"
     style="stroke-width:0.85969961">
    <g
       id="g3088"
       style="stroke-width:0.85969961">
      <g
         id="g3090"
         style="stroke-width:0.85969961">
        <path
           id="path3092"
           d="M 187.57,359.458 H 548.465 L 612.321,131.524 H 518.348 L 484.608,27.304 343.9,72.916 l 19.244,58.608 h -6.623 l -34.74,-104.22 -140.709,45.612 19.244,58.608 H 125.088 L 109.468,69.042 C 101.595,37.801 74.353,15.683 42.987,15.683 H 0 V 41.8 h 42.987 c 19.494,0 36.489,12.996 41.738,32.616 l 69.105,270.421 c -14.246,10.247 -23.618,26.992 -23.618,46.112 0,31.241 26.117,57.358 57.358,57.358 H 539.343 V 422.19 H 187.57 c -16.995,0 -31.241,-14.371 -31.241,-31.241 0.001,-17.12 14.371,-31.491 31.241,-31.491 z M 467.739,59.795 491.232,130.15 H 389.637 L 375.266,89.787 Z m -162.828,0 23.493,70.355 H 226.809 L 212.438,89.787 Z m 273.546,96.472 -49.486,177.199 H 177.198 L 131.586,156.268 Z"
           inkscape:connector-curvature="0"
           style="fill:#ffffff;stroke-width:0.85969961" />
        <path
           id="path3094"
           d="m 424.751,487.171 c -29.991,0 -54.734,24.743 -54.734,54.734 0,29.991 24.743,54.734 54.734,54.734 31.241,0 54.734,-24.743 54.734,-54.734 10e-4,-29.991 -24.742,-54.734 -54.734,-54.734 z m 0,84.725 c -16.995,0 -29.991,-14.371 -29.991,-29.991 0,-16.995 14.371,-29.991 29.991,-29.991 16.995,0 29.991,12.996 29.991,29.991 10e-4,16.995 -14.37,29.991 -29.991,29.991 z"
           inkscape:connector-curvature="0"
           style="fill:#ffffff;stroke-width:0.85969961" />
        <path
           id="path3096"
           d="m 224.06,487.171 c -29.991,0 -54.734,24.743 -54.734,54.734 0,29.991 24.743,54.734 54.734,54.734 29.991,0 54.734,-24.743 54.734,-54.734 0,-29.991 -24.743,-54.734 -54.734,-54.734 z m 0,84.725 c -16.995,0 -29.991,-14.371 -29.991,-29.991 0,-16.995 14.371,-29.991 29.991,-29.991 15.62,0 29.991,12.996 29.991,29.991 0,16.995 -14.371,29.991 -29.991,29.991 z"
           inkscape:connector-curvature="0"
           style="fill:#ffffff;stroke-width:0.85969961" />
      </g>
    </g>
  </g>
</svg>
