<?xml version="1.0" encoding="UTF-8" standalone="no"?>
<!-- Created with Inkscape (http://www.inkscape.org/) -->

<svg
   xmlns:dc="http://purl.org/dc/elements/1.1/"
   xmlns:cc="http://creativecommons.org/ns#"
   xmlns:rdf="http://www.w3.org/1999/02/22-rdf-syntax-ns#"
   xmlns:svg="http://www.w3.org/2000/svg"
   xmlns="http://www.w3.org/2000/svg"
   xmlns:sodipodi="http://sodipodi.sourceforge.net/DTD/sodipodi-0.dtd"
   xmlns:inkscape="http://www.inkscape.org/namespaces/inkscape"
   id="svg3055"
   version="1.1"
   inkscape:version="0.48.5 r10040"
   width="540"
   height="270"
   sodipodi:docname="woocommerce-expand-tabs.svg">
  <metadata
     id="metadata3061">
    <rdf:RDF>
      <cc:Work
         rdf:about="">
        <dc:format>image/svg+xml</dc:format>
        <dc:type
           rdf:resource="http://purl.org/dc/dcmitype/StillImage" />
        <dc:title />
      </cc:Work>
    </rdf:RDF>
  </metadata>
  <defs
     id="defs3059" />
  <sodipodi:namedview
     pagecolor="#ffffff"
     bordercolor="#666666"
     borderopacity="1"
     objecttolerance="10"
     gridtolerance="10"
     guidetolerance="10"
     inkscape:pageopacity="0"
     inkscape:pageshadow="2"
     inkscape:window-width="1364"
     inkscape:window-height="747"
     id="namedview3057"
     showgrid="false"
     inkscape:zoom="1.9259259"
     inkscape:cx="341.38809"
     inkscape:cy="148.06492"
     inkscape:window-x="0"
     inkscape:window-y="19"
     inkscape:window-maximized="1"
     inkscape:current-layer="svg3055" />
  <rect
     style="opacity:1;color:#000000;fill:#1eace1;fill-opacity:1;fill-rule:nonzero;stroke:#333333;stroke-width:0;stroke-linecap:round;stroke-linejoin:round;stroke-miterlimit:4;stroke-opacity:0.94117647000000004;stroke-dasharray:none;stroke-dashoffset:0;marker:none;visibility:visible;display:inline;overflow:visible;enable-background:accumulate"
     id="rect3065"
     width="540"
     height="270"
     x="0"
     y="0" />
  <g
     style="font-size:24px;font-style:normal;font-variant:normal;font-weight:normal;font-stretch:normal;line-height:125%;letter-spacing:0.05000000000000000px;word-spacing:0px;fill:#ffffff;fill-opacity:1;stroke:none;font-family:Raleway;-inkscape-font-specification:Raleway"
     id="text3837">
    <path
       d="m 65.965246,177.59843 2.112,0 3.2,8.064 3.232,-8.064 2.144,0 -3.968,9.696 4.352,10.272 8.224,-20.128 2.432,0 -9.632,22.72 -1.984,0 -4.768,-11.232 -4.8,11.232 -1.952,0 -9.6,-22.72 2.4,0 8.256,20.128 4.32,-10.272 -3.968,-9.696"
       style="font-size:32px;-inkscape-font-specification:Raleway;fill:#ffffff"
       id="path3299" />
    <path
       d="m 95.564745,200.47843 c -1.216008,0 -2.32534,-0.224 -3.328,-0.672 -1.002672,-0.46933 -1.877337,-1.09866 -2.624,-1.888 -0.725336,-0.78933 -1.290669,-1.70666 -1.696,-2.752 -0.405335,-1.04533 -0.608001,-2.14399 -0.608,-3.296 -10e-7,-1.17332 0.202665,-2.28265 0.608,-3.328 0.426665,-1.04532 1.002664,-1.96265 1.728,-2.752 0.746663,-0.78932 1.621328,-1.41865 2.624,-1.888 1.00266,-0.46931 2.101325,-0.70398 3.296,-0.704 1.194656,2e-5 2.293322,0.23469 3.296,0.704 1.023986,0.46935 1.898655,1.09868 2.624005,1.888 0.74665,0.78935 1.32265,1.70668 1.728,2.752 0.42664,1.04535 0.63998,2.15468 0.64,3.328 -2e-5,1.15201 -0.20269,2.25067 -0.608,3.296 -0.40535,1.04534 -0.98135,1.96267 -1.728,2.752 -0.72535,0.78934 -1.600019,1.41867 -2.624005,1.888 -1.002678,0.448 -2.11201,0.672 -3.328,0.672 m -6.048,-8.576 c -3e-6,0.93868 0.159997,1.81334 0.48,2.624 0.319996,0.78934 0.746662,1.49334 1.28,2.112 0.554661,0.59734 1.19466,1.06667 1.92,1.408 0.746659,0.34134 1.535992,0.512 2.368,0.512 0.83199,0 1.610656,-0.17066 2.336,-0.512 0.746654,-0.36266 1.39732,-0.84266 1.952,-1.44 0.554655,-0.61866 0.991985,-1.33333 1.312005,-2.144 0.31998,-0.81066 0.47998,-1.68532 0.48,-2.624 -2e-5,-0.91732 -0.16002,-1.78132 -0.48,-2.592 -0.32002,-0.83199 -0.75735,-1.54665 -1.312005,-2.144 -0.55468,-0.61865 -1.205346,-1.09865 -1.952,-1.44 -0.725344,-0.36265 -1.50401,-0.54398 -2.336,-0.544 -0.832008,2e-5 -1.610674,0.18135 -2.336,0.544 -0.72534,0.34135 -1.365339,0.82135 -1.92,1.44 -0.554671,0.61868 -0.992004,1.34401 -1.312,2.176 -0.320003,0.81068 -0.480003,1.68534 -0.48,2.624"
       style="font-size:32px;-inkscape-font-specification:Raleway;fill:#ffffff"
       id="path3301" />
    <path
       d="m 114.67724,200.47843 c -1.216,0 -2.32534,-0.224 -3.328,-0.672 -1.00267,-0.46933 -1.87733,-1.09866 -2.624,-1.888 -0.72533,-0.78933 -1.29066,-1.70666 -1.696,-2.752 -0.40533,-1.04533 -0.608,-2.14399 -0.608,-3.296 0,-1.17332 0.20267,-2.28265 0.608,-3.328 0.42667,-1.04532 1.00267,-1.96265 1.728,-2.752 0.74667,-0.78932 1.62133,-1.41865 2.624,-1.888 1.00266,-0.46931 2.10133,-0.70398 3.296,-0.704 1.19466,2e-5 2.29333,0.23469 3.296,0.704 1.02399,0.46935 1.89866,1.09868 2.624,1.888 0.74665,0.78935 1.32265,1.70668 1.728,2.752 0.42665,1.04535 0.63999,2.15468 0.64,3.328 -10e-6,1.15201 -0.20268,2.25067 -0.608,3.296 -0.40535,1.04534 -0.98135,1.96267 -1.728,2.752 -0.72534,0.78934 -1.60001,1.41867 -2.624,1.888 -1.00267,0.448 -2.11201,0.672 -3.328,0.672 m -6.048,-8.576 c 0,0.93868 0.16,1.81334 0.48,2.624 0.32,0.78934 0.74667,1.49334 1.28,2.112 0.55467,0.59734 1.19466,1.06667 1.92,1.408 0.74666,0.34134 1.536,0.512 2.368,0.512 0.83199,0 1.61066,-0.17066 2.336,-0.512 0.74666,-0.36266 1.39732,-0.84266 1.952,-1.44 0.55466,-0.61866 0.99199,-1.33333 1.312,-2.144 0.31999,-0.81066 0.47999,-1.68532 0.48,-2.624 -10e-6,-0.91732 -0.16001,-1.78132 -0.48,-2.592 -0.32001,-0.83199 -0.75734,-1.54665 -1.312,-2.144 -0.55468,-0.61865 -1.20534,-1.09865 -1.952,-1.44 -0.72534,-0.36265 -1.50401,-0.54398 -2.336,-0.544 -0.832,2e-5 -1.61067,0.18135 -2.336,0.544 -0.72534,0.34135 -1.36533,0.82135 -1.92,1.44 -0.55467,0.61868 -0.992,1.34401 -1.312,2.176 -0.32,0.81068 -0.48,1.68534 -0.48,2.624"
       style="font-size:32px;-inkscape-font-specification:Raleway;fill:#ffffff"
       id="path3303" />
    <path
       d="m 125.62975,188.63843 c 0,-1.36532 0.23466,-2.71998 0.704,-4.064 0.49066,-1.36531 1.19466,-2.58131 2.112,-3.648 0.91733,-1.06664 2.04799,-1.93064 3.392,-2.592 1.34399,-0.68264 2.86932,-1.02398 4.576,-1.024 2.02665,2e-5 3.75465,0.45869 5.184,1.376 1.45065,0.91736 2.51731,2.11202 3.2,3.584 l -1.76,1.088 c -0.36269,-0.74665 -0.81069,-1.37598 -1.344,-1.888 -0.51202,-0.51198 -1.06669,-0.92798 -1.664,-1.248 -0.59735,-0.31998 -1.21602,-0.54398 -1.856,-0.672 -0.64002,-0.14931 -1.26935,-0.22398 -1.888,-0.224 -1.36535,2e-5 -2.57068,0.27736 -3.616,0.832 -1.04534,0.55469 -1.93068,1.28002 -2.656,2.176 -0.70401,0.89602 -1.23734,1.90935 -1.6,3.04 -0.36267,1.10935 -0.54401,2.24001 -0.544,3.392 -1e-5,1.25868 0.21333,2.46401 0.64,3.616 0.44799,1.15201 1.04533,2.17601 1.792,3.072 0.76799,0.87467 1.66399,1.57867 2.688,2.112 1.04532,0.512 2.17599,0.768 3.392,0.768 0.63998,0 1.29065,-0.0747 1.952,-0.224 0.68265,-0.17066 1.33332,-0.42666 1.952,-0.768 0.63998,-0.36266 1.22665,-0.79999 1.76,-1.312 0.53331,-0.53333 0.98131,-1.17333 1.344,-1.92 l 1.856,0.96 c -0.36269,0.85334 -0.87469,1.61067 -1.536,2.272 -0.66135,0.64 -1.39735,1.184 -2.208,1.632 -0.81069,0.448 -1.67468,0.78934 -2.592,1.024 -0.89602,0.23467 -1.78135,0.352 -2.656,0.352 -1.55735,0 -2.98668,-0.34133 -4.288,-1.024 -1.30134,-0.68266 -2.42134,-1.568 -3.36,-2.656 -0.93867,-1.10933 -1.67467,-2.35733 -2.208,-3.744 -0.512,-1.40799 -0.768,-2.83732 -0.768,-4.288"
       style="font-size:32px;-inkscape-font-specification:Raleway;fill:#ffffff"
       id="path3305" />
    <path
       d="m 155.77724,200.47843 c -1.21601,0 -2.32534,-0.224 -3.328,-0.672 -1.00267,-0.46933 -1.87733,-1.09866 -2.624,-1.888 -0.72533,-0.78933 -1.29067,-1.70666 -1.696,-2.752 -0.40533,-1.04533 -0.608,-2.14399 -0.608,-3.296 0,-1.17332 0.20267,-2.28265 0.608,-3.328 0.42667,-1.04532 1.00267,-1.96265 1.728,-2.752 0.74667,-0.78932 1.62133,-1.41865 2.624,-1.888 1.00266,-0.46931 2.10133,-0.70398 3.296,-0.704 1.19466,2e-5 2.29332,0.23469 3.296,0.704 1.02399,0.46935 1.89865,1.09868 2.624,1.888 0.74665,0.78935 1.32265,1.70668 1.728,2.752 0.42665,1.04535 0.63999,2.15468 0.64,3.328 -10e-6,1.15201 -0.20268,2.25067 -0.608,3.296 -0.40535,1.04534 -0.98135,1.96267 -1.728,2.752 -0.72535,0.78934 -1.60001,1.41867 -2.624,1.888 -1.00268,0.448 -2.11201,0.672 -3.328,0.672 m -6.048,-8.576 c 0,0.93868 0.16,1.81334 0.48,2.624 0.32,0.78934 0.74666,1.49334 1.28,2.112 0.55466,0.59734 1.19466,1.06667 1.92,1.408 0.74666,0.34134 1.53599,0.512 2.368,0.512 0.83199,0 1.61066,-0.17066 2.336,-0.512 0.74666,-0.36266 1.39732,-0.84266 1.952,-1.44 0.55466,-0.61866 0.99199,-1.33333 1.312,-2.144 0.31999,-0.81066 0.47999,-1.68532 0.48,-2.624 -1e-5,-0.91732 -0.16001,-1.78132 -0.48,-2.592 -0.32001,-0.83199 -0.75734,-1.54665 -1.312,-2.144 -0.55468,-0.61865 -1.20534,-1.09865 -1.952,-1.44 -0.72534,-0.36265 -1.50401,-0.54398 -2.336,-0.544 -0.83201,2e-5 -1.61067,0.18135 -2.336,0.544 -0.72534,0.34135 -1.36534,0.82135 -1.92,1.44 -0.55467,0.61868 -0.992,1.34401 -1.312,2.176 -0.32,0.81068 -0.48,1.68534 -0.48,2.624"
       style="font-size:32px;-inkscape-font-specification:Raleway;fill:#ffffff"
       id="path3307" />
    <path
       d="m 192.58575,200.15843 -2.176,0 0,-9.312 c -3e-5,-1.94132 -0.30936,-3.37065 -0.928,-4.288 -0.61869,-0.91732 -1.53603,-1.37598 -2.752,-1.376 -0.64002,2e-5 -1.24802,0.11735 -1.824,0.352 -0.55469,0.23468 -1.07736,0.56535 -1.568,0.992 -0.46935,0.42668 -0.88535,0.93868 -1.248,1.536 -0.36269,0.57601 -0.64002,1.21601 -0.832,1.92 l 0,10.176 -2.176,0 0,-9.312 c -2e-5,-1.98399 -0.29868,-3.42399 -0.896,-4.32 -0.59735,-0.89598 -1.51468,-1.34398 -2.752,-1.344 -1.25868,2e-5 -2.37868,0.43735 -3.36,1.312 -0.98134,0.87468 -1.68534,2.02668 -2.112,3.456 l 0,10.208 -2.176,0 0,-16.672 1.984,0 0,3.776 c 0.68266,-1.27998 1.57866,-2.27198 2.688,-2.976 1.10932,-0.72531 2.33599,-1.08798 3.68,-1.088 1.40798,2e-5 2.52798,0.39469 3.36,1.184 0.85331,0.78935 1.37598,1.82402 1.568,3.104 1.55731,-2.85865 3.70131,-4.28798 6.432,-4.288 0.93864,2e-5 1.72797,0.17069 2.368,0.512 0.6613,0.34135 1.18397,0.83202 1.568,1.472 0.4053,0.61868 0.6933,1.37602 0.864,2.272 0.19197,0.87468 0.28797,1.85601 0.288,2.944 l 0,9.76"
       style="font-size:32px;-inkscape-font-specification:Raleway;fill:#ffffff"
       id="path3309" />
    <path
       d="m 222.07325,200.15843 -2.176,0 0,-9.312 c -3e-5,-1.94132 -0.30936,-3.37065 -0.928,-4.288 -0.61869,-0.91732 -1.53602,-1.37598 -2.752,-1.376 -0.64002,2e-5 -1.24802,0.11735 -1.824,0.352 -0.55469,0.23468 -1.07735,0.56535 -1.568,0.992 -0.46935,0.42668 -0.88535,0.93868 -1.248,1.536 -0.36268,0.57601 -0.64002,1.21601 -0.832,1.92 l 0,10.176 -2.176,0 0,-9.312 c -1e-5,-1.98399 -0.29868,-3.42399 -0.896,-4.32 -0.59735,-0.89598 -1.51468,-1.34398 -2.752,-1.344 -1.25868,2e-5 -2.37868,0.43735 -3.36,1.312 -0.98134,0.87468 -1.68534,2.02668 -2.112,3.456 l 0,10.208 -2.176,0 0,-16.672 1.984,0 0,3.776 c 0.68266,-1.27998 1.57866,-2.27198 2.688,-2.976 1.10932,-0.72531 2.33599,-1.08798 3.68,-1.088 1.40799,2e-5 2.52799,0.39469 3.36,1.184 0.85332,0.78935 1.37598,1.82402 1.568,3.104 1.55732,-2.85865 3.70131,-4.28798 6.432,-4.288 0.93864,2e-5 1.72798,0.17069 2.368,0.512 0.66131,0.34135 1.18397,0.83202 1.568,1.472 0.40531,0.61868 0.69331,1.37602 0.864,2.272 0.19197,0.87468 0.28797,1.85601 0.288,2.944 l 0,9.76"
       style="font-size:32px;-inkscape-font-specification:Raleway;fill:#ffffff"
       id="path3311" />
    <path
       d="m 233.96075,200.47843 c -1.21601,0 -2.33601,-0.224 -3.36,-0.672 -1.00267,-0.46933 -1.87734,-1.09866 -2.624,-1.888 -0.74667,-0.81066 -1.33333,-1.73866 -1.76,-2.784 -0.40533,-1.04533 -0.608,-2.16532 -0.608,-3.36 0,-1.17332 0.20267,-2.27199 0.608,-3.296 0.42667,-1.04532 1.00267,-1.95198 1.728,-2.72 0.74666,-0.78932 1.632,-1.40798 2.656,-1.856 1.02399,-0.46931 2.13333,-0.70398 3.328,-0.704 1.21599,2e-5 2.32532,0.23469 3.328,0.704 1.02399,0.44802 1.89865,1.06668 2.624,1.856 0.72532,0.78935 1.29065,1.69601 1.696,2.72 0.40532,1.02401 0.60798,2.11201 0.608,3.264 -2e-5,0.17068 -2e-5,0.34134 0,0.512 -2e-5,0.17068 -0.0107,0.28801 -0.032,0.352 l -14.272,0 c 0.064,0.89601 0.26666,1.72801 0.608,2.496 0.36266,0.74667 0.82133,1.39734 1.376,1.952 0.55466,0.55467 1.184,0.992 1.888,1.312 0.72533,0.29867 1.49333,0.448 2.304,0.448 0.53333,0 1.06666,-0.0747 1.6,-0.224 0.53332,-0.14933 1.02399,-0.352 1.472,-0.608 0.44799,-0.256 0.85332,-0.56533 1.216,-0.928 0.36265,-0.38399 0.63999,-0.79999 0.832,-1.248 l 1.888,0.512 c -0.25601,0.61867 -0.61868,1.184 -1.088,1.696 -0.46935,0.49067 -1.01335,0.928 -1.632,1.312 -0.61868,0.36267 -1.30134,0.64 -2.048,0.832 -0.74668,0.21334 -1.52534,0.32 -2.336,0.32 m 6.144,-9.536 c -0.064,-0.89599 -0.27735,-1.70665 -0.64,-2.432 -0.34135,-0.74665 -0.78935,-1.38665 -1.344,-1.92 -0.53334,-0.53332 -1.16268,-0.94932 -1.888,-1.248 -0.70401,-0.29865 -1.46134,-0.44798 -2.272,-0.448 -0.81067,2e-5 -1.57867,0.14935 -2.304,0.448 -0.72534,0.29868 -1.36534,0.71468 -1.92,1.248 -0.53334,0.53335 -0.97067,1.17335 -1.312,1.92 -0.32,0.74668 -0.512,1.55735 -0.576,2.432 l 12.256,0"
       style="font-size:32px;-inkscape-font-specification:Raleway;fill:#ffffff"
       id="path3313" />
    <path
       d="m 253.94324,185.40643 c -1.47201,0.0427 -2.75201,0.44802 -3.84,1.216 -1.08801,0.76801 -1.85601,1.82401 -2.304,3.168 l 0,10.368 -2.176,0 0,-16.672 2.048,0 0,4 c 0.61866,-1.27998 1.45066,-2.28265 2.496,-3.008 1.04533,-0.72531 2.16532,-1.08798 3.36,-1.088 0.17066,2e-5 0.30932,0.0107 0.416,0.032 l 0,1.984"
       style="font-size:32px;-inkscape-font-specification:Raleway;fill:#ffffff"
       id="path3315" />
    <path
       d="m 254.95874,191.77443 c 0,-1.17332 0.20267,-2.28265 0.608,-3.328 0.40533,-1.04532 0.97067,-1.95198 1.696,-2.72 0.74667,-0.78932 1.632,-1.40798 2.656,-1.856 1.024,-0.44798 2.15466,-0.67198 3.392,-0.672 1.57866,2e-5 2.95466,0.36269 4.128,1.088 1.17332,0.70402 2.05865,1.66402 2.656,2.88 l -2.112,0.672 c -0.46934,-0.85332 -1.13068,-1.51465 -1.984,-1.984 -0.83201,-0.49065 -1.76001,-0.73598 -2.784,-0.736 -0.85334,2e-5 -1.65334,0.17068 -2.4,0.512 -0.72534,0.34135 -1.36534,0.81068 -1.92,1.408 -0.53334,0.57601 -0.96,1.26935 -1.28,2.08 -0.29867,0.81068 -0.448,1.69601 -0.448,2.656 0,0.93868 0.16,1.82401 0.48,2.656 0.32,0.83201 0.75733,1.55734 1.312,2.176 0.55466,0.59734 1.19466,1.07734 1.92,1.44 0.74666,0.34134 1.53599,0.512 2.368,0.512 0.53333,0 1.05599,-0.0747 1.568,-0.224 0.53332,-0.14933 1.02399,-0.352 1.472,-0.608 0.44799,-0.27733 0.83199,-0.58666 1.152,-0.928 0.31999,-0.34133 0.54399,-0.70399 0.672,-1.088 l 2.144,0.64 c -0.23468,0.59734 -0.57601,1.152 -1.024,1.664 -0.44801,0.49067 -0.98134,0.928 -1.6,1.312 -0.59734,0.36267 -1.26934,0.64 -2.016,0.832 -0.72534,0.21334 -1.48267,0.32 -2.272,0.32 -1.21601,0 -2.336,-0.224 -3.36,-0.672 -1.024,-0.46933 -1.90933,-1.09866 -2.656,-1.888 -0.74667,-0.81066 -1.33333,-1.73866 -1.76,-2.784 -0.40533,-1.04533 -0.608,-2.16532 -0.608,-3.36"
       style="font-size:32px;-inkscape-font-specification:Raleway;fill:#ffffff"
       id="path3317" />
    <path
       d="m 280.73575,200.47843 c -1.21601,0 -2.33601,-0.224 -3.36,-0.672 -1.00268,-0.46933 -1.87734,-1.09866 -2.624,-1.888 -0.74667,-0.81066 -1.33334,-1.73866 -1.76,-2.784 -0.40534,-1.04533 -0.60801,-2.16532 -0.608,-3.36 -1e-5,-1.17332 0.20266,-2.27199 0.608,-3.296 0.42666,-1.04532 1.00266,-1.95198 1.728,-2.72 0.74666,-0.78932 1.63199,-1.40798 2.656,-1.856 1.02399,-0.46931 2.13332,-0.70398 3.328,-0.704 1.21599,2e-5 2.32532,0.23469 3.328,0.704 1.02398,0.44802 1.89865,1.06668 2.624,1.856 0.72531,0.78935 1.29065,1.69601 1.696,2.72 0.40531,1.02401 0.60798,2.11201 0.608,3.264 -2e-5,0.17068 -2e-5,0.34134 0,0.512 -2e-5,0.17068 -0.0107,0.28801 -0.032,0.352 l -14.272,0 c 0.064,0.89601 0.26666,1.72801 0.608,2.496 0.36266,0.74667 0.82132,1.39734 1.376,1.952 0.55466,0.55467 1.18399,0.992 1.888,1.312 0.72532,0.29867 1.49332,0.448 2.304,0.448 0.53332,0 1.06665,-0.0747 1.6,-0.224 0.53332,-0.14933 1.02398,-0.352 1.472,-0.608 0.44798,-0.256 0.85332,-0.56533 1.216,-0.928 0.36265,-0.38399 0.63998,-0.79999 0.832,-1.248 l 1.888,0.512 c -0.25602,0.61867 -0.61869,1.184 -1.088,1.696 -0.46935,0.49067 -1.01335,0.928 -1.632,1.312 -0.61868,0.36267 -1.30135,0.64 -2.048,0.832 -0.74668,0.21334 -1.52535,0.32 -2.336,0.32 m 6.144,-9.536 c -0.064,-0.89599 -0.27735,-1.70665 -0.64,-2.432 -0.34135,-0.74665 -0.78935,-1.38665 -1.344,-1.92 -0.53335,-0.53332 -1.16268,-0.94932 -1.888,-1.248 -0.70402,-0.29865 -1.46135,-0.44798 -2.272,-0.448 -0.81068,2e-5 -1.57868,0.14935 -2.304,0.448 -0.72534,0.29868 -1.36534,0.71468 -1.92,1.248 -0.53334,0.53335 -0.97068,1.17335 -1.312,1.92 -0.32001,0.74668 -0.51201,1.55735 -0.576,2.432 l 12.256,0"
       style="font-size:32px;-inkscape-font-specification:Raleway;fill:#ffffff"
       id="path3319" />
    <path
       d="m 316.34775,198.17443 0,1.984 -15.264,0 0,-22.72 14.976,0 0,1.984 -12.736,0 0,8.192 11.104,0 0,1.888 -11.104,0 0,8.672 13.024,0"
       style="font-size:32px;-inkscape-font-specification:Raleway;fill:#ffffff"
       id="path3321" />
    <path
       d="m 320.60174,183.48643 4.992,6.528 0.256,0.48 0.256,-0.48 4.992,-6.528 2.336,0 -6.368,8.384 6.368,8.288 -2.336,0 -4.992,-6.496 -0.256,-0.448 -0.256,0.448 -4.992,6.496 -2.336,0 6.368,-8.288 -6.368,-8.384 2.336,0"
       style="font-size:32px;-inkscape-font-specification:Raleway;fill:#ffffff"
       id="path3323" />
    <path
       d="m 344.87276,200.47843 c -1.40801,0 -2.65601,-0.352 -3.744,-1.056 -1.06667,-0.72533 -1.93067,-1.632 -2.592,-2.72 l 0,10.272 -2.176,0 0,-23.488 1.952,0 0,3.232 c 0.68266,-1.04532 1.56799,-1.88798 2.656,-2.528 1.08799,-0.66131 2.27199,-0.99198 3.552,-0.992 1.15199,2e-5 2.20799,0.24535 3.168,0.736 0.95998,0.46935 1.79198,1.10935 2.496,1.92 0.70398,0.78935 1.24798,1.70668 1.632,2.752 0.40531,1.04535 0.60798,2.12268 0.608,3.232 -2e-5,1.17334 -0.18135,2.28267 -0.544,3.328 -0.36269,1.04534 -0.88535,1.96267 -1.568,2.752 -0.66135,0.78934 -1.46135,1.41867 -2.4,1.888 -0.91735,0.448 -1.93068,0.672 -3.04,0.672 m -0.608,-1.92 c 0.89599,0 1.70665,-0.192 2.432,-0.576 0.74665,-0.384 1.37598,-0.88533 1.888,-1.504 0.53332,-0.63999 0.93865,-1.35466 1.216,-2.144 0.27732,-0.81066 0.41598,-1.64266 0.416,-2.496 -2e-5,-0.89599 -0.16002,-1.74932 -0.48,-2.56 -0.32002,-0.81065 -0.75735,-1.52532 -1.312,-2.144 -0.55468,-0.61865 -1.21602,-1.10932 -1.984,-1.472 -0.74668,-0.36265 -1.55735,-0.54398 -2.432,-0.544 -0.55468,2e-5 -1.14134,0.11735 -1.76,0.352 -0.59734,0.21335 -1.16268,0.51202 -1.696,0.896 -0.51201,0.36268 -0.96001,0.80001 -1.344,1.312 -0.36267,0.49068 -0.58667,1.01335 -0.672,1.568 l 0,5.12 c 0.25599,0.59734 0.57599,1.15201 0.96,1.664 0.40533,0.51201 0.85333,0.96001 1.344,1.344 0.51199,0.36267 1.05599,0.65067 1.632,0.864 0.57599,0.21334 1.17332,0.32 1.792,0.32"
       style="font-size:32px;-inkscape-font-specification:Raleway;fill:#ffffff"
       id="path3325" />
    <path
       d="m 360.35275,200.47843 c -0.78934,0 -1.52534,-0.128 -2.208,-0.384 -0.66134,-0.27733 -1.24801,-0.65066 -1.76,-1.12 -0.49067,-0.46933 -0.87467,-1.01333 -1.152,-1.632 -0.27734,-0.63999 -0.41601,-1.32266 -0.416,-2.048 -1e-5,-0.72533 0.17066,-1.39733 0.512,-2.016 0.34133,-0.61866 0.82133,-1.15199 1.44,-1.6 0.61866,-0.44799 1.35466,-0.78932 2.208,-1.024 0.85332,-0.25599 1.79199,-0.38399 2.816,-0.384 0.85332,1e-5 1.71732,0.0747 2.592,0.224 0.87465,0.14934 1.65332,0.36268 2.336,0.64 l 0,-1.504 c -2e-5,-1.47199 -0.41602,-2.63465 -1.248,-3.488 -0.83201,-0.87465 -1.98401,-1.31198 -3.456,-1.312 -0.85334,2e-5 -1.72801,0.17068 -2.624,0.512 -0.89601,0.34135 -1.80267,0.83202 -2.72,1.472 l -0.768,-1.44 c 2.15466,-1.45065 4.24532,-2.17598 6.272,-2.176 2.09065,2e-5 3.73332,0.58669 4.928,1.76 1.19465,1.17335 1.79198,2.79468 1.792,4.864 l 0,7.52 c -2e-5,0.59734 0.26665,0.896 0.8,0.896 l 0,1.92 c -0.36269,0.064 -0.64002,0.096 -0.832,0.096 -0.55469,0 -0.99202,-0.13866 -1.312,-0.416 -0.29868,-0.27733 -0.45868,-0.66133 -0.48,-1.152 l -0.064,-1.312 c -0.76802,1.00267 -1.73868,1.77067 -2.912,2.304 -1.15201,0.53334 -2.40001,0.8 -3.744,0.8 m 0.512,-1.664 c 1.13065,0 2.16532,-0.21333 3.104,-0.64 0.95998,-0.42666 1.68532,-0.992 2.176,-1.696 0.19198,-0.19199 0.33065,-0.39466 0.416,-0.608 0.10665,-0.23466 0.15998,-0.44799 0.16,-0.64 l 0,-2.72 c -0.72535,-0.27732 -1.48268,-0.49066 -2.272,-0.64 -0.76801,-0.14932 -1.55735,-0.22399 -2.368,-0.224 -1.53601,1e-5 -2.78401,0.32001 -3.744,0.96 -0.96001,0.64001 -1.44001,1.48267 -1.44,2.528 -10e-6,0.51201 0.096,0.99201 0.288,1.44 0.21333,0.44801 0.49066,0.84267 0.832,1.184 0.36266,0.32 0.78932,0.576 1.28,0.768 0.49066,0.192 1.01332,0.288 1.568,0.288"
       style="font-size:32px;-inkscape-font-specification:Raleway;fill:#ffffff"
       id="path3327" />
    <path
       d="m 387.66423,200.15843 -2.176,0 0,-9.312 c -10e-6,-1.98399 -0.29868,-3.42399 -0.896,-4.32 -0.57601,-0.89598 -1.47201,-1.34398 -2.688,-1.344 -0.64001,2e-5 -1.28001,0.11735 -1.92,0.352 -0.64,0.23468 -1.23734,0.56535 -1.792,0.992 -0.53334,0.42668 -1.01334,0.93868 -1.44,1.536 -0.42667,0.57601 -0.736,1.20535 -0.928,1.888 l 0,10.208 -2.176,0 0,-16.672 1.984,0 0,3.776 c 0.68267,-1.21598 1.65333,-2.19732 2.912,-2.944 1.28,-0.74665 2.66666,-1.11998 4.16,-1.12 0.91732,2e-5 1.69599,0.17069 2.336,0.512 0.63999,0.34135 1.15199,0.82135 1.536,1.44 0.38399,0.61868 0.66132,1.37602 0.832,2.272 0.17065,0.89601 0.25599,1.88801 0.256,2.976 l 0,9.76"
       style="font-size:32px;-inkscape-font-specification:Raleway;fill:#ffffff"
       id="path3329" />
    <path
       d="m 399.23375,200.47843 c -1.15201,0 -2.21867,-0.23466 -3.2,-0.704 -0.98134,-0.49066 -1.824,-1.13066 -2.528,-1.92 -0.704,-0.78933 -1.25867,-1.69599 -1.664,-2.72 -0.384,-1.04533 -0.576,-2.13332 -0.576,-3.264 0,-1.17332 0.192,-2.28265 0.576,-3.328 0.384,-1.06665 0.90667,-1.99465 1.568,-2.784 0.68266,-0.78932 1.48266,-1.40798 2.4,-1.856 0.93866,-0.46931 1.96266,-0.70398 3.072,-0.704 1.40799,2e-5 2.65599,0.37335 3.744,1.12 1.08799,0.72535 1.94132,1.61068 2.56,2.656 l 0,-10.176 2.176,0 0,20.544 c -2e-5,0.59734 0.25598,0.896 0.768,0.896 l 0,1.92 c -0.32002,0.064 -0.57602,0.096 -0.768,0.096 -0.51201,0 -0.96001,-0.16 -1.344,-0.48 -0.38401,-0.34133 -0.57601,-0.74666 -0.576,-1.216 l 0,-1.632 c -0.66135,1.088 -1.55735,1.952 -2.688,2.592 -1.13068,0.64 -2.30401,0.96 -3.52,0.96 m 0.48,-1.92 c 0.53333,0 1.09866,-0.10666 1.696,-0.32 0.61866,-0.21333 1.19466,-0.50133 1.728,-0.864 0.53332,-0.38399 0.98132,-0.82133 1.344,-1.312 0.38399,-0.51199 0.61865,-1.05599 0.704,-1.632 l 0,-5.152 c -0.21335,-0.57599 -0.52268,-1.10932 -0.928,-1.6 -0.40535,-0.51199 -0.87468,-0.95998 -1.408,-1.344 -0.51201,-0.38398 -1.06668,-0.68265 -1.664,-0.896 -0.59734,-0.21332 -1.18401,-0.31998 -1.76,-0.32 -0.89601,2e-5 -1.70667,0.19202 -2.432,0.576 -0.72534,0.38402 -1.35467,0.89602 -1.888,1.536 -0.512,0.61868 -0.90667,1.33335 -1.184,2.144 -0.27733,0.81068 -0.416,1.64268 -0.416,2.496 0,0.89601 0.16,1.74934 0.48,2.56 0.32,0.81067 0.75733,1.52534 1.312,2.144 0.55466,0.59734 1.20533,1.07734 1.952,1.44 0.76799,0.36267 1.58933,0.544 2.464,0.544"
       style="font-size:32px;-inkscape-font-specification:Raleway;fill:#ffffff"
       id="path3331" />
    <path
       d="m 436.24926,179.42243 -8.096,0 0,20.736 -2.24,0 0,-20.736 -8.096,0 0,-1.984 18.432,0 0,1.984"
       style="font-size:32px;-inkscape-font-specification:Raleway;fill:#ffffff"
       id="path3333" />
    <path
       d="m 439.91525,200.47843 c -0.78934,0 -1.52534,-0.128 -2.208,-0.384 -0.66134,-0.27733 -1.24801,-0.65066 -1.76,-1.12 -0.49067,-0.46933 -0.87467,-1.01333 -1.152,-1.632 -0.27734,-0.63999 -0.41601,-1.32266 -0.416,-2.048 -1e-5,-0.72533 0.17066,-1.39733 0.512,-2.016 0.34133,-0.61866 0.82133,-1.15199 1.44,-1.6 0.61866,-0.44799 1.35466,-0.78932 2.208,-1.024 0.85332,-0.25599 1.79199,-0.38399 2.816,-0.384 0.85332,1e-5 1.71732,0.0747 2.592,0.224 0.87465,0.14934 1.65332,0.36268 2.336,0.64 l 0,-1.504 c -2e-5,-1.47199 -0.41602,-2.63465 -1.248,-3.488 -0.83201,-0.87465 -1.98401,-1.31198 -3.456,-1.312 -0.85334,2e-5 -1.72801,0.17068 -2.624,0.512 -0.89601,0.34135 -1.80267,0.83202 -2.72,1.472 l -0.768,-1.44 c 2.15466,-1.45065 4.24532,-2.17598 6.272,-2.176 2.09065,2e-5 3.73332,0.58669 4.928,1.76 1.19465,1.17335 1.79198,2.79468 1.792,4.864 l 0,7.52 c -2e-5,0.59734 0.26665,0.896 0.8,0.896 l 0,1.92 c -0.36269,0.064 -0.64002,0.096 -0.832,0.096 -0.55469,0 -0.99202,-0.13866 -1.312,-0.416 -0.29868,-0.27733 -0.45868,-0.66133 -0.48,-1.152 l -0.064,-1.312 c -0.76802,1.00267 -1.73868,1.77067 -2.912,2.304 -1.15201,0.53334 -2.40001,0.8 -3.744,0.8 m 0.512,-1.664 c 1.13065,0 2.16532,-0.21333 3.104,-0.64 0.95998,-0.42666 1.68532,-0.992 2.176,-1.696 0.19198,-0.19199 0.33065,-0.39466 0.416,-0.608 0.10665,-0.23466 0.15998,-0.44799 0.16,-0.64 l 0,-2.72 c -0.72535,-0.27732 -1.48268,-0.49066 -2.272,-0.64 -0.76801,-0.14932 -1.55735,-0.22399 -2.368,-0.224 -1.53601,1e-5 -2.78401,0.32001 -3.744,0.96 -0.96001,0.64001 -1.44001,1.48267 -1.44,2.528 -10e-6,0.51201 0.096,0.99201 0.288,1.44 0.21333,0.44801 0.49066,0.84267 0.832,1.184 0.36266,0.32 0.78932,0.576 1.28,0.768 0.49066,0.192 1.01332,0.288 1.568,0.288"
       style="font-size:32px;-inkscape-font-specification:Raleway;fill:#ffffff"
       id="path3335" />
    <path
       d="m 461.37073,200.47843 c -1.32267,0 -2.53867,-0.33066 -3.648,-0.992 -1.088,-0.66133 -1.94133,-1.51466 -2.56,-2.56 l 0,3.232 -1.952,0 0,-23.36 2.176,0 0,10.176 c 0.74667,-1.13065 1.64266,-2.03732 2.688,-2.72 1.04533,-0.70398 2.26133,-1.05598 3.648,-1.056 1.17333,2e-5 2.21866,0.24535 3.136,0.736 0.93866,0.49068 1.72799,1.15202 2.368,1.984 0.66132,0.81068 1.16265,1.73868 1.504,2.784 0.36265,1.02401 0.54399,2.08001 0.544,3.168 -10e-6,1.17334 -0.20268,2.28267 -0.608,3.328 -0.40535,1.04534 -0.96001,1.96267 -1.664,2.752 -0.70401,0.768 -1.54668,1.38667 -2.528,1.856 -0.96001,0.448 -1.99467,0.672 -3.104,0.672 m -0.512,-1.92 c 0.91733,0 1.74933,-0.18133 2.496,-0.544 0.76799,-0.384 1.41866,-0.88533 1.952,-1.504 0.55466,-0.63999 0.98132,-1.35466 1.28,-2.144 0.31999,-0.81066 0.47999,-1.64266 0.48,-2.496 -1e-5,-0.87466 -0.14935,-1.71732 -0.448,-2.528 -0.27735,-0.81065 -0.68268,-1.52532 -1.216,-2.144 -0.51201,-0.63998 -1.14134,-1.14132 -1.888,-1.504 -0.72534,-0.38398 -1.52534,-0.57598 -2.4,-0.576 -0.66134,2e-5 -1.28001,0.11735 -1.856,0.352 -0.576,0.21335 -1.10934,0.51202 -1.6,0.896 -0.49067,0.38402 -0.928,0.83201 -1.312,1.344 -0.384,0.49068 -0.704,1.01335 -0.96,1.568 l 0,5.184 c 0.0853,0.57601 0.30933,1.12001 0.672,1.632 0.384,0.49067 0.832,0.91734 1.344,1.28 0.53333,0.36267 1.09866,0.65067 1.696,0.864 0.61866,0.21334 1.20533,0.32 1.76,0.32"
       style="font-size:32px;-inkscape-font-specification:Raleway;fill:#ffffff"
       id="path3337" />
    <path
       d="m 478.54675,200.47843 c -1.30134,0 -2.57067,-0.21333 -3.808,-0.64 -1.23733,-0.42666 -2.304,-1.04533 -3.2,-1.856 l 0.992,-1.472 c 0.93867,0.768 1.888,1.344 2.848,1.728 0.98133,0.384 2.02666,0.576 3.136,0.576 1.34399,0 2.41066,-0.26666 3.2,-0.8 0.81066,-0.55466 1.21599,-1.33333 1.216,-2.336 -10e-6,-0.46933 -0.10668,-0.85333 -0.32,-1.152 -0.21334,-0.31999 -0.53334,-0.59733 -0.96,-0.832 -0.40534,-0.23466 -0.92801,-0.43732 -1.568,-0.608 -0.61867,-0.19199 -1.34401,-0.38399 -2.176,-0.576 -0.96,-0.23466 -1.792,-0.46932 -2.496,-0.704 -0.704,-0.23466 -1.29067,-0.50132 -1.76,-0.8 -0.448,-0.29866 -0.78933,-0.66132 -1.024,-1.088 -0.21333,-0.44799 -0.32,-1.00265 -0.32,-1.664 0,-0.83199 0.16,-1.56798 0.48,-2.208 0.34133,-0.63998 0.78933,-1.16265 1.344,-1.568 0.576,-0.42665 1.23733,-0.74665 1.984,-0.96 0.768,-0.21331 1.57866,-0.31998 2.432,-0.32 1.27999,2e-5 2.44266,0.21335 3.488,0.64 1.04532,0.40535 1.88799,0.94935 2.528,1.632 l -1.056,1.28 c -0.61868,-0.63998 -1.37601,-1.11998 -2.272,-1.44 -0.87467,-0.31998 -1.79201,-0.47998 -2.752,-0.48 -0.57601,2e-5 -1.10934,0.064 -1.6,0.192 -0.49067,0.10668 -0.928,0.28802 -1.312,0.544 -0.36267,0.25602 -0.65067,0.58668 -0.864,0.992 -0.21334,0.38402 -0.32,0.84268 -0.32,1.376 0,0.44801 0.0747,0.81068 0.224,1.088 0.14933,0.27735 0.39466,0.52268 0.736,0.736 0.34133,0.19201 0.768,0.37335 1.28,0.544 0.53333,0.14935 1.17333,0.30934 1.92,0.48 1.06666,0.25601 2.00533,0.51201 2.816,0.768 0.81066,0.25601 1.48266,0.55468 2.016,0.896 0.55466,0.34134 0.97066,0.75734 1.248,1.248 0.27732,0.49067 0.41599,1.08801 0.416,1.792 -1e-5,1.53601 -0.58668,2.752 -1.76,3.648 -1.17334,0.896 -2.75201,1.344 -4.736,1.344"
       style="font-size:32px;-inkscape-font-specification:Raleway;fill:#ffffff"
       id="path3339" />
  </g>
  <g
     transform="matrix(3.0981432,0,0,3.0981432,10.480563,13.242114)"
     id="g3949" />
  <g
     transform="matrix(3.0981432,0,0,3.0981432,10.480563,13.242114)"
     id="g3951" />
  <g
     transform="matrix(3.0981432,0,0,3.0981432,10.480563,13.242114)"
     id="g3953" />
  <g
     transform="matrix(3.0981432,0,0,3.0981432,10.480563,13.242114)"
     id="g3955" />
  <g
     transform="matrix(3.0981432,0,0,3.0981432,10.480563,13.242114)"
     id="g3957" />
  <g
     transform="matrix(3.0981432,0,0,3.0981432,10.480563,13.242114)"
     id="g3959" />
  <g
     transform="matrix(3.0981432,0,0,3.0981432,10.480563,13.242114)"
     id="g3961" />
  <g
     transform="matrix(3.0981432,0,0,3.0981432,10.480563,13.242114)"
     id="g3963" />
  <g
     transform="matrix(3.0981432,0,0,3.0981432,10.480563,13.242114)"
     id="g3965" />
  <g
     transform="matrix(3.0981432,0,0,3.0981432,10.480563,13.242114)"
     id="g3967" />
  <g
     transform="matrix(3.0981432,0,0,3.0981432,10.480563,13.242114)"
     id="g3969" />
  <g
     transform="matrix(3.0981432,0,0,3.0981432,10.480563,13.242114)"
     id="g3971" />
  <g
     transform="matrix(3.0981432,0,0,3.0981432,10.480563,13.242114)"
     id="g3973" />
  <g
     transform="matrix(3.0981432,0,0,3.0981432,10.480563,13.242114)"
     id="g3975" />
  <g
     transform="matrix(3.0981432,0,0,3.0981432,10.480563,13.242114)"
     id="g3977" />
  <g
     transform="matrix(4.591418,0,0,4.591418,674.20723,-201.0887)"
     id="g3195" />
  <g
     transform="matrix(4.591418,0,0,4.591418,674.20723,-201.0887)"
     id="g3197" />
  <g
     transform="matrix(4.591418,0,0,4.591418,674.20723,-201.0887)"
     id="g3199" />
  <g
     transform="matrix(4.591418,0,0,4.591418,674.20723,-201.0887)"
     id="g3201" />
  <g
     transform="matrix(4.591418,0,0,4.591418,674.20723,-201.0887)"
     id="g3203" />
  <g
     transform="matrix(4.591418,0,0,4.591418,674.20723,-201.0887)"
     id="g3205" />
  <g
     transform="matrix(4.591418,0,0,4.591418,674.20723,-201.0887)"
     id="g3207" />
  <g
     transform="matrix(4.591418,0,0,4.591418,674.20723,-201.0887)"
     id="g3209" />
  <g
     transform="matrix(4.591418,0,0,4.591418,674.20723,-201.0887)"
     id="g3211" />
  <g
     transform="matrix(4.591418,0,0,4.591418,674.20723,-201.0887)"
     id="g3213" />
  <g
     transform="matrix(4.591418,0,0,4.591418,674.20723,-201.0887)"
     id="g3215" />
  <g
     transform="matrix(4.591418,0,0,4.591418,674.20723,-201.0887)"
     id="g3217" />
  <g
     transform="matrix(4.591418,0,0,4.591418,674.20723,-201.0887)"
     id="g3219" />
  <g
     transform="matrix(4.591418,0,0,4.591418,674.20723,-201.0887)"
     id="g3221" />
  <g
     transform="matrix(4.591418,0,0,4.591418,674.20723,-201.0887)"
     id="g3223" />
  <g
     transform="matrix(1.5873972,0,0,1.5873972,337.48077,41.06078)"
     id="g3577"
     style="fill:#ffffff">
    <path
       style="fill:#ffffff"
       inkscape:connector-curvature="0"
       d="M 56.98,11.5 H 28.019 V 6.52 C 28.019,4.855 26.665,3.5 25,3.5 H 3.019 C 1.354,3.5 0,4.854 0,6.52 v 13.98 2 30.98 c 0,1.665 1.354,3.02 3.019,3.02 H 56.98 C 58.645,56.5 60,55.146 60,53.48 V 22.5 20.5 14.52 C 60,12.854 58.646,11.5 56.98,11.5 z M 58,53.48 c 0,0.563 -0.457,1.02 -1.02,1.02 H 3.019 C 2.457,54.5 2,54.043 2,53.48 V 22.5 H 58 V 53.48 z M 2,20.5 V 6.52 C 2,5.957 2.457,5.5 3.019,5.5 H 25 c 0.562,0 1.019,0.457 1.019,1.02 V 13.5 H 56.98 c 0.563,0 1.02,0.457 1.02,1.02 V 20.5 H 2 z"
       id="path3579" />
    <path
       style="fill:#ffffff"
       inkscape:connector-curvature="0"
       d="m 19,33.5 h 14 c 0.552,0 1,-0.447 1,-1 0,-0.553 -0.448,-1 -1,-1 H 19 c -0.552,0 -1,0.447 -1,1 0,0.553 0.448,1 1,1 z"
       id="path3581" />
    <path
       style="fill:#ffffff"
       inkscape:connector-curvature="0"
       d="m 19,39.5 h 22 c 0.552,0 1,-0.447 1,-1 0,-0.553 -0.448,-1 -1,-1 H 19 c -0.552,0 -1,0.447 -1,1 0,0.553 0.448,1 1,1 z"
       id="path3583" />
    <path
       style="fill:#ffffff"
       inkscape:connector-curvature="0"
       d="m 19,45.5 h 22 c 0.552,0 1,-0.447 1,-1 0,-0.553 -0.448,-1 -1,-1 H 19 c -0.552,0 -1,0.447 -1,1 0,0.553 0.448,1 1,1 z"
       id="path3585" />
  </g>
  <g
     transform="matrix(2.9491533,0,0,2.9491533,-24.423075,347.16002)"
     id="g3587"
     style="fill:#1a1a1a" />
  <g
     transform="matrix(2.9491533,0,0,2.9491533,-24.423075,347.16002)"
     id="g3589"
     style="fill:#1a1a1a" />
  <g
     transform="matrix(2.9491533,0,0,2.9491533,-24.423075,347.16002)"
     id="g3591"
     style="fill:#1a1a1a" />
  <g
     transform="matrix(2.9491533,0,0,2.9491533,-24.423075,347.16002)"
     id="g3593"
     style="fill:#1a1a1a" />
  <g
     transform="matrix(2.9491533,0,0,2.9491533,-24.423075,347.16002)"
     id="g3595"
     style="fill:#1a1a1a" />
  <g
     transform="matrix(2.9491533,0,0,2.9491533,-24.423075,347.16002)"
     id="g3597"
     style="fill:#1a1a1a" />
  <g
     transform="matrix(2.9491533,0,0,2.9491533,-24.423075,347.16002)"
     id="g3599"
     style="fill:#1a1a1a" />
  <g
     transform="matrix(2.9491533,0,0,2.9491533,-24.423075,347.16002)"
     id="g3601"
     style="fill:#1a1a1a" />
  <g
     transform="matrix(2.9491533,0,0,2.9491533,-24.423075,347.16002)"
     id="g3603"
     style="fill:#1a1a1a" />
  <g
     transform="matrix(2.9491533,0,0,2.9491533,-24.423075,347.16002)"
     id="g3605"
     style="fill:#1a1a1a" />
  <g
     transform="matrix(2.9491533,0,0,2.9491533,-24.423075,347.16002)"
     id="g3607"
     style="fill:#1a1a1a" />
  <g
     transform="matrix(2.9491533,0,0,2.9491533,-24.423075,347.16002)"
     id="g3609"
     style="fill:#1a1a1a" />
  <g
     transform="matrix(2.9491533,0,0,2.9491533,-24.423075,347.16002)"
     id="g3611"
     style="fill:#1a1a1a" />
  <g
     transform="matrix(2.9491533,0,0,2.9491533,-24.423075,347.16002)"
     id="g3613"
     style="fill:#1a1a1a" />
  <g
     transform="matrix(2.9491533,0,0,2.9491533,-24.423075,347.16002)"
     id="g3615"
     style="fill:#1a1a1a" />
</svg>
