<?xml version="1.0" encoding="UTF-8" standalone="no"?>
<!-- Created with Inkscape (http://www.inkscape.org/) -->

<svg
   xmlns:dc="http://purl.org/dc/elements/1.1/"
   xmlns:cc="http://creativecommons.org/ns#"
   xmlns:rdf="http://www.w3.org/1999/02/22-rdf-syntax-ns#"
   xmlns:svg="http://www.w3.org/2000/svg"
   xmlns="http://www.w3.org/2000/svg"
   xmlns:sodipodi="http://sodipodi.sourceforge.net/DTD/sodipodi-0.dtd"
   xmlns:inkscape="http://www.inkscape.org/namespaces/inkscape"
   id="svg3055"
   version="1.1"
   inkscape:version="0.48.5 r10040"
   width="540"
   height="270"
   sodipodi:docname="wp-image-zoom.svg">
  <metadata
     id="metadata3061">
    <rdf:RDF>
      <cc:Work
         rdf:about="">
        <dc:format>image/svg+xml</dc:format>
        <dc:type
           rdf:resource="http://purl.org/dc/dcmitype/StillImage" />
        <dc:title />
      </cc:Work>
    </rdf:RDF>
  </metadata>
  <defs
     id="defs3059" />
  <sodipodi:namedview
     pagecolor="#ffffff"
     bordercolor="#666666"
     borderopacity="1"
     objecttolerance="10"
     gridtolerance="10"
     guidetolerance="10"
     inkscape:pageopacity="0"
     inkscape:pageshadow="2"
     inkscape:window-width="1364"
     inkscape:window-height="747"
     id="namedview3057"
     showgrid="false"
     inkscape:zoom="3.8518518"
     inkscape:cx="382.10757"
     inkscape:cy="143.43844"
     inkscape:window-x="0"
     inkscape:window-y="19"
     inkscape:window-maximized="1"
     inkscape:current-layer="svg3055" />
  <rect
     style="opacity:1;color:#000000;fill:#1bc623;fill-opacity:1;fill-rule:nonzero;stroke:#333333;stroke-width:0;stroke-linecap:round;stroke-linejoin:round;stroke-miterlimit:4;stroke-opacity:0.94117647000000004;stroke-dasharray:none;stroke-dashoffset:0;marker:none;visibility:visible;display:inline;overflow:visible;enable-background:accumulate"
     id="rect3065"
     width="540"
     height="270"
     x="0"
     y="0" />
  <g
     style="font-size:24px;font-style:normal;font-variant:normal;font-weight:normal;font-stretch:normal;line-height:125%;letter-spacing:0.05000000000000000px;word-spacing:0px;fill:#ffffff;fill-opacity:1;stroke:none;font-family:Raleway;-inkscape-font-specification:Raleway"
     id="text3837">
    <path
       d="m 120.31576,177.59843 2.112,0 3.2,8.064 3.232,-8.064 2.144,0 -3.968,9.696 4.352,10.272 8.224,-20.128 2.432,0 -9.632,22.72 -1.984,0 -4.768,-11.232 -4.8,11.232 -1.952,0 -9.6,-22.72 2.4,0 8.256,20.128 4.32,-10.272 -3.968,-9.696"
       style="font-size:32px;-inkscape-font-specification:Raleway;fill:#ffffff"
       id="path3458" />
    <path
       d="m 145.32176,200.15843 0,-22.72 9.408,0 c 0.98132,2e-5 1.87732,0.21336 2.688,0.64 0.83198,0.40536 1.54665,0.94936 2.144,1.632 0.59731,0.66136 1.06665,1.41869 1.408,2.272 0.34131,0.85335 0.51198,1.71735 0.512,2.592 -2e-5,0.93868 -0.16002,1.84535 -0.48,2.72 -0.32002,0.85335 -0.76802,1.61068 -1.344,2.272 -0.57602,0.66135 -1.26935,1.19468 -2.08,1.6 -0.78935,0.40534 -1.67468,0.60801 -2.656,0.608 l -7.36,0 0,8.384 -2.24,0 m 2.24,-10.368 7.264,0 c 0.66132,1e-5 1.25865,-0.13865 1.792,-0.416 0.55465,-0.29865 1.02398,-0.68265 1.408,-1.152 0.38398,-0.49065 0.68265,-1.04532 0.896,-1.664 0.21332,-0.63998 0.31998,-1.30132 0.32,-1.984 -2e-5,-0.70398 -0.12802,-1.36531 -0.384,-1.984 -0.23468,-0.63998 -0.56535,-1.19465 -0.992,-1.664 -0.40535,-0.46931 -0.89602,-0.83198 -1.472,-1.088 -0.55468,-0.27731 -1.14135,-0.41598 -1.76,-0.416 l -7.072,0 0,10.368"
       style="font-size:32px;-inkscape-font-specification:Raleway;fill:#ffffff"
       id="path3460" />
    <path
       d="m 172.60926,200.15843 0,-22.72 2.24,0 0,22.72 -2.24,0"
       style="font-size:32px;-inkscape-font-specification:Raleway;fill:#ffffff"
       id="path3462" />
    <path
       d="m 204.94876,200.15843 -2.176,0 0,-9.312 c -3e-5,-1.94132 -0.30936,-3.37065 -0.928,-4.288 -0.61869,-0.91732 -1.53603,-1.37598 -2.752,-1.376 -0.64002,2e-5 -1.24802,0.11735 -1.824,0.352 -0.55469,0.23468 -1.07736,0.56535 -1.568,0.992 -0.46935,0.42668 -0.88535,0.93868 -1.248,1.536 -0.36269,0.57601 -0.64002,1.21601 -0.832,1.92 l 0,10.176 -2.176,0 0,-9.312 c -2e-5,-1.98399 -0.29868,-3.42399 -0.896,-4.32 -0.59735,-0.89598 -1.51468,-1.34398 -2.752,-1.344 -1.25868,2e-5 -2.37868,0.43735 -3.36,1.312 -0.98134,0.87468 -1.68534,2.02668 -2.112,3.456 l 0,10.208 -2.176,0 0,-16.672 1.984,0 0,3.776 c 0.68266,-1.27998 1.57866,-2.27198 2.688,-2.976 1.10932,-0.72531 2.33599,-1.08798 3.68,-1.088 1.40798,2e-5 2.52798,0.39469 3.36,1.184 0.85331,0.78935 1.37598,1.82402 1.568,3.104 1.55731,-2.85865 3.70131,-4.28798 6.432,-4.288 0.93864,2e-5 1.72797,0.17069 2.368,0.512 0.6613,0.34135 1.18397,0.83202 1.568,1.472 0.4053,0.61868 0.6933,1.37602 0.864,2.272 0.19197,0.87468 0.28797,1.85601 0.288,2.944 l 0,9.76"
       style="font-size:32px;-inkscape-font-specification:Raleway;fill:#ffffff"
       id="path3464" />
    <path
       d="m 213.82826,200.47843 c -0.78934,0 -1.52534,-0.128 -2.208,-0.384 -0.66134,-0.27733 -1.248,-0.65066 -1.76,-1.12 -0.49067,-0.46933 -0.87467,-1.01333 -1.152,-1.632 -0.27734,-0.63999 -0.416,-1.32266 -0.416,-2.048 0,-0.72533 0.17066,-1.39733 0.512,-2.016 0.34133,-0.61866 0.82133,-1.15199 1.44,-1.6 0.61866,-0.44799 1.35466,-0.78932 2.208,-1.024 0.85333,-0.25599 1.79199,-0.38399 2.816,-0.384 0.85332,1e-5 1.71732,0.0747 2.592,0.224 0.87465,0.14934 1.65332,0.36268 2.336,0.64 l 0,-1.504 c -1e-5,-1.47199 -0.41601,-2.63465 -1.248,-3.488 -0.83201,-0.87465 -1.98401,-1.31198 -3.456,-1.312 -0.85334,2e-5 -1.72801,0.17068 -2.624,0.512 -0.89601,0.34135 -1.80267,0.83202 -2.72,1.472 l -0.768,-1.44 c 2.15466,-1.45065 4.24533,-2.17598 6.272,-2.176 2.09066,2e-5 3.73332,0.58669 4.928,1.76 1.19465,1.17335 1.79198,2.79468 1.792,4.864 l 0,7.52 c -2e-5,0.59734 0.26665,0.896 0.8,0.896 l 0,1.92 c -0.36268,0.064 -0.64002,0.096 -0.832,0.096 -0.55468,0 -0.99201,-0.13866 -1.312,-0.416 -0.29868,-0.27733 -0.45868,-0.66133 -0.48,-1.152 l -0.064,-1.312 c -0.76801,1.00267 -1.73868,1.77067 -2.912,2.304 -1.15201,0.53334 -2.40001,0.8 -3.744,0.8 m 0.512,-1.664 c 1.13066,0 2.16532,-0.21333 3.104,-0.64 0.95999,-0.42666 1.68532,-0.992 2.176,-1.696 0.19199,-0.19199 0.33065,-0.39466 0.416,-0.608 0.10665,-0.23466 0.15999,-0.44799 0.16,-0.64 l 0,-2.72 c -0.72535,-0.27732 -1.48268,-0.49066 -2.272,-0.64 -0.76801,-0.14932 -1.55734,-0.22399 -2.368,-0.224 -1.53601,1e-5 -2.78401,0.32001 -3.744,0.96 -0.96,0.64001 -1.44,1.48267 -1.44,2.528 0,0.51201 0.096,0.99201 0.288,1.44 0.21333,0.44801 0.49066,0.84267 0.832,1.184 0.36266,0.32 0.78933,0.576 1.28,0.768 0.49066,0.192 1.01333,0.288 1.568,0.288"
       style="font-size:32px;-inkscape-font-specification:Raleway;fill:#ffffff"
       id="path3466" />
    <path
       d="m 233.81176,200.38243 c -1.15201,0 -2.208,-0.23466 -3.168,-0.704 -0.93867,-0.49066 -1.76,-1.13066 -2.464,-1.92 -0.68267,-0.78933 -1.216,-1.69599 -1.6,-2.72 -0.384,-1.02399 -0.576,-2.07999 -0.576,-3.168 0,-1.15199 0.18133,-2.25065 0.544,-3.296 0.384,-1.06665 0.91733,-1.99465 1.6,-2.784 0.68267,-0.78932 1.49333,-1.41865 2.432,-1.888 0.96,-0.46931 2.01599,-0.70398 3.168,-0.704 1.42933,2e-5 2.66666,0.36269 3.712,1.088 1.04532,0.70402 1.94132,1.60002 2.688,2.688 l 0,-3.488 1.952,0 0,16.736 c -1e-5,1.152 -0.22401,2.16533 -0.672,3.04 -0.42668,0.896 -1.01335,1.64266 -1.76,2.24 -0.72535,0.59733 -1.58934,1.04533 -2.592,1.344 -0.98134,0.29866 -2.02667,0.44799 -3.136,0.448 -1.92,-1e-5 -3.46667,-0.34134 -4.64,-1.024 -1.17333,-0.68267 -2.12267,-1.6 -2.848,-2.752 l 1.344,-1.056 c 0.66133,1.06667 1.536,1.84533 2.624,2.336 1.088,0.512 2.26133,0.768 3.52,0.768 0.81066,0 1.57866,-0.11734 2.304,-0.352 0.72532,-0.21334 1.35466,-0.544 1.888,-0.992 0.55466,-0.42667 0.99199,-0.98133 1.312,-1.664 0.31999,-0.66133 0.47999,-1.44 0.48,-2.336 l 0,-3.296 c -0.64001,1.06667 -1.51468,1.90934 -2.624,2.528 -1.10934,0.61867 -2.27201,0.928 -3.488,0.928 m 0.608,-1.824 c 0.63999,0 1.26932,-0.11733 1.888,-0.352 0.61866,-0.23466 1.17332,-0.544 1.664,-0.928 0.51199,-0.40533 0.93865,-0.85333 1.28,-1.344 0.34132,-0.49066 0.56532,-0.99199 0.672,-1.504 l 0,-5.152 c -0.23468,-0.59732 -0.55468,-1.15199 -0.96,-1.664 -0.40534,-0.51198 -0.86401,-0.94932 -1.376,-1.312 -0.51201,-0.36265 -1.06668,-0.65065 -1.664,-0.864 -0.57601,-0.21332 -1.16267,-0.31998 -1.76,-0.32 -0.93867,2e-5 -1.78134,0.20268 -2.528,0.608 -0.72534,0.38402 -1.344,0.89602 -1.856,1.536 -0.512,0.64001 -0.90667,1.36535 -1.184,2.176 -0.256,0.81068 -0.384,1.63201 -0.384,2.464 0,0.89601 0.16,1.74934 0.48,2.56 0.32,0.81067 0.75733,1.52534 1.312,2.144 0.576,0.59734 1.23733,1.07734 1.984,1.44 0.74666,0.34134 1.55733,0.512 2.432,0.512"
       style="font-size:32px;-inkscape-font-specification:Raleway;fill:#ffffff"
       id="path3468" />
    <path
       d="m 254.12377,200.47843 c -1.21601,0 -2.33601,-0.224 -3.36,-0.672 -1.00268,-0.46933 -1.87734,-1.09866 -2.624,-1.888 -0.74667,-0.81066 -1.33334,-1.73866 -1.76,-2.784 -0.40534,-1.04533 -0.60801,-2.16532 -0.608,-3.36 -1e-5,-1.17332 0.20266,-2.27199 0.608,-3.296 0.42666,-1.04532 1.00266,-1.95198 1.728,-2.72 0.74666,-0.78932 1.63199,-1.40798 2.656,-1.856 1.02399,-0.46931 2.13332,-0.70398 3.328,-0.704 1.21598,2e-5 2.32532,0.23469 3.328,0.704 1.02398,0.44802 1.89865,1.06668 2.624,1.856 0.72531,0.78935 1.29065,1.69601 1.696,2.72 0.40531,1.02401 0.60798,2.11201 0.608,3.264 -2e-5,0.17068 -2e-5,0.34134 0,0.512 -2e-5,0.17068 -0.0107,0.28801 -0.032,0.352 l -14.272,0 c 0.064,0.89601 0.26666,1.72801 0.608,2.496 0.36266,0.74667 0.82132,1.39734 1.376,1.952 0.55466,0.55467 1.18399,0.992 1.888,1.312 0.72532,0.29867 1.49332,0.448 2.304,0.448 0.53332,0 1.06665,-0.0747 1.6,-0.224 0.53332,-0.14933 1.02398,-0.352 1.472,-0.608 0.44798,-0.256 0.85332,-0.56533 1.216,-0.928 0.36265,-0.38399 0.63998,-0.79999 0.832,-1.248 l 1.888,0.512 c -0.25602,0.61867 -0.61869,1.184 -1.088,1.696 -0.46935,0.49067 -1.01335,0.928 -1.632,1.312 -0.61868,0.36267 -1.30135,0.64 -2.048,0.832 -0.74668,0.21334 -1.52535,0.32 -2.336,0.32 m 6.144,-9.536 c -0.064,-0.89599 -0.27735,-1.70665 -0.64,-2.432 -0.34135,-0.74665 -0.78935,-1.38665 -1.344,-1.92 -0.53335,-0.53332 -1.16268,-0.94932 -1.888,-1.248 -0.70402,-0.29865 -1.46135,-0.44798 -2.272,-0.448 -0.81068,2e-5 -1.57868,0.14935 -2.304,0.448 -0.72534,0.29868 -1.36534,0.71468 -1.92,1.248 -0.53334,0.53335 -0.97068,1.17335 -1.312,1.92 -0.32001,0.74668 -0.51201,1.55735 -0.576,2.432 l 12.256,0"
       style="font-size:32px;-inkscape-font-specification:Raleway;fill:#ffffff"
       id="path3470" />
    <path
       d="m 272.61576,198.39843 15.456,-18.976 -15.2,0 0,-1.984 17.792,0 0,1.76 -15.264,18.976 15.232,0 0,1.984 -18.016,0 0,-1.76"
       style="font-size:32px;-inkscape-font-specification:Raleway;fill:#ffffff"
       id="path3472" />
    <path
       d="m 300.74026,200.47843 c -1.21601,0 -2.32534,-0.224 -3.328,-0.672 -1.00267,-0.46933 -1.87734,-1.09866 -2.624,-1.888 -0.72534,-0.78933 -1.29067,-1.70666 -1.696,-2.752 -0.40534,-1.04533 -0.608,-2.14399 -0.608,-3.296 0,-1.17332 0.20266,-2.28265 0.608,-3.328 0.42666,-1.04532 1.00266,-1.96265 1.728,-2.752 0.74666,-0.78932 1.62133,-1.41865 2.624,-1.888 1.00266,-0.46931 2.10132,-0.70398 3.296,-0.704 1.19466,2e-5 2.29332,0.23469 3.296,0.704 1.02399,0.46935 1.89865,1.09868 2.624,1.888 0.74665,0.78935 1.32265,1.70668 1.728,2.752 0.42665,1.04535 0.63998,2.15468 0.64,3.328 -2e-5,1.15201 -0.20268,2.25067 -0.608,3.296 -0.40535,1.04534 -0.98135,1.96267 -1.728,2.752 -0.72535,0.78934 -1.60001,1.41867 -2.624,1.888 -1.00268,0.448 -2.11201,0.672 -3.328,0.672 m -6.048,-8.576 c 0,0.93868 0.16,1.81334 0.48,2.624 0.32,0.78934 0.74666,1.49334 1.28,2.112 0.55466,0.59734 1.19466,1.06667 1.92,1.408 0.74666,0.34134 1.53599,0.512 2.368,0.512 0.83199,0 1.61066,-0.17066 2.336,-0.512 0.74665,-0.36266 1.39732,-0.84266 1.952,-1.44 0.55465,-0.61866 0.99198,-1.33333 1.312,-2.144 0.31998,-0.81066 0.47998,-1.68532 0.48,-2.624 -2e-5,-0.91732 -0.16002,-1.78132 -0.48,-2.592 -0.32002,-0.83199 -0.75735,-1.54665 -1.312,-2.144 -0.55468,-0.61865 -1.20535,-1.09865 -1.952,-1.44 -0.72534,-0.36265 -1.50401,-0.54398 -2.336,-0.544 -0.83201,2e-5 -1.61068,0.18135 -2.336,0.544 -0.72534,0.34135 -1.36534,0.82135 -1.92,1.44 -0.55467,0.61868 -0.992,1.34401 -1.312,2.176 -0.32,0.81068 -0.48,1.68534 -0.48,2.624"
       style="font-size:32px;-inkscape-font-specification:Raleway;fill:#ffffff"
       id="path3474" />
    <path
       d="m 319.85276,200.47843 c -1.21601,0 -2.32534,-0.224 -3.328,-0.672 -1.00267,-0.46933 -1.87734,-1.09866 -2.624,-1.888 -0.72533,-0.78933 -1.29067,-1.70666 -1.696,-2.752 -0.40533,-1.04533 -0.608,-2.14399 -0.608,-3.296 0,-1.17332 0.20267,-2.28265 0.608,-3.328 0.42667,-1.04532 1.00267,-1.96265 1.728,-2.752 0.74666,-0.78932 1.62133,-1.41865 2.624,-1.888 1.00266,-0.46931 2.10133,-0.70398 3.296,-0.704 1.19466,2e-5 2.29332,0.23469 3.296,0.704 1.02399,0.46935 1.89865,1.09868 2.624,1.888 0.74665,0.78935 1.32265,1.70668 1.728,2.752 0.42665,1.04535 0.63998,2.15468 0.64,3.328 -2e-5,1.15201 -0.20268,2.25067 -0.608,3.296 -0.40535,1.04534 -0.98135,1.96267 -1.728,2.752 -0.72535,0.78934 -1.60001,1.41867 -2.624,1.888 -1.00268,0.448 -2.11201,0.672 -3.328,0.672 m -6.048,-8.576 c 0,0.93868 0.16,1.81334 0.48,2.624 0.32,0.78934 0.74666,1.49334 1.28,2.112 0.55466,0.59734 1.19466,1.06667 1.92,1.408 0.74666,0.34134 1.53599,0.512 2.368,0.512 0.83199,0 1.61066,-0.17066 2.336,-0.512 0.74666,-0.36266 1.39732,-0.84266 1.952,-1.44 0.55465,-0.61866 0.99199,-1.33333 1.312,-2.144 0.31999,-0.81066 0.47999,-1.68532 0.48,-2.624 -10e-6,-0.91732 -0.16001,-1.78132 -0.48,-2.592 -0.32001,-0.83199 -0.75735,-1.54665 -1.312,-2.144 -0.55468,-0.61865 -1.20534,-1.09865 -1.952,-1.44 -0.72534,-0.36265 -1.50401,-0.54398 -2.336,-0.544 -0.83201,2e-5 -1.61067,0.18135 -2.336,0.544 -0.72534,0.34135 -1.36534,0.82135 -1.92,1.44 -0.55467,0.61868 -0.992,1.34401 -1.312,2.176 -0.32,0.81068 -0.48,1.68534 -0.48,2.624"
       style="font-size:32px;-inkscape-font-specification:Raleway;fill:#ffffff"
       id="path3476" />
    <path
       d="m 356.66127,200.15843 -2.176,0 0,-9.312 c -3e-5,-1.94132 -0.30936,-3.37065 -0.928,-4.288 -0.61869,-0.91732 -1.53603,-1.37598 -2.752,-1.376 -0.64003,2e-5 -1.24802,0.11735 -1.824,0.352 -0.55469,0.23468 -1.07736,0.56535 -1.568,0.992 -0.46936,0.42668 -0.88535,0.93868 -1.248,1.536 -0.36269,0.57601 -0.64002,1.21601 -0.832,1.92 l 0,10.176 -2.176,0 0,-9.312 c -2e-5,-1.98399 -0.29868,-3.42399 -0.896,-4.32 -0.59735,-0.89598 -1.51468,-1.34398 -2.752,-1.344 -1.25868,2e-5 -2.37868,0.43735 -3.36,1.312 -0.98134,0.87468 -1.68534,2.02668 -2.112,3.456 l 0,10.208 -2.176,0 0,-16.672 1.984,0 0,3.776 c 0.68266,-1.27998 1.57866,-2.27198 2.688,-2.976 1.10932,-0.72531 2.33599,-1.08798 3.68,-1.088 1.40798,2e-5 2.52798,0.39469 3.36,1.184 0.85331,0.78935 1.37598,1.82402 1.568,3.104 1.55731,-2.85865 3.70131,-4.28798 6.432,-4.288 0.93864,2e-5 1.72797,0.17069 2.368,0.512 0.6613,0.34135 1.18397,0.83202 1.568,1.472 0.4053,0.61868 0.6933,1.37602 0.864,2.272 0.19197,0.87468 0.28797,1.85601 0.288,2.944 l 0,9.76"
       style="font-size:32px;-inkscape-font-specification:Raleway;fill:#ffffff"
       id="path3478" />
    <path
       d="m 370.03427,200.15843 0,-22.72 9.408,0 c 0.98132,2e-5 1.87732,0.21336 2.688,0.64 0.83199,0.40536 1.54665,0.94936 2.144,1.632 0.59732,0.66136 1.06665,1.41869 1.408,2.272 0.34132,0.85335 0.51198,1.71735 0.512,2.592 -2e-5,0.93868 -0.16002,1.84535 -0.48,2.72 -0.32002,0.85335 -0.76802,1.61068 -1.344,2.272 -0.57601,0.66135 -1.26935,1.19468 -2.08,1.6 -0.78935,0.40534 -1.67468,0.60801 -2.656,0.608 l -7.36,0 0,8.384 -2.24,0 m 2.24,-10.368 7.264,0 c 0.66132,1e-5 1.25865,-0.13865 1.792,-0.416 0.55465,-0.29865 1.02399,-0.68265 1.408,-1.152 0.38399,-0.49065 0.68265,-1.04532 0.896,-1.664 0.21332,-0.63998 0.31998,-1.30132 0.32,-1.984 -2e-5,-0.70398 -0.12801,-1.36531 -0.384,-1.984 -0.23468,-0.63998 -0.56535,-1.19465 -0.992,-1.664 -0.40535,-0.46931 -0.89601,-0.83198 -1.472,-1.088 -0.55468,-0.27731 -1.14134,-0.41598 -1.76,-0.416 l -7.072,0 0,10.368"
       style="font-size:32px;-inkscape-font-specification:Raleway;fill:#ffffff"
       id="path3480" />
    <path
       d="m 389.95926,200.15843 0,-22.72 9.6,0 c 0.98132,2e-5 1.87732,0.21336 2.688,0.64 0.83198,0.40536 1.54665,0.94936 2.144,1.632 0.59731,0.66136 1.05598,1.41869 1.376,2.272 0.34131,0.85335 0.51198,1.71735 0.512,2.592 -2e-5,0.83202 -0.12802,1.63202 -0.384,2.4 -0.23469,0.74668 -0.57602,1.42935 -1.024,2.048 -0.42668,0.59735 -0.94935,1.10935 -1.568,1.536 -0.61868,0.40534 -1.31202,0.68268 -2.08,0.832 l 5.568,8.768 -2.528,0 -5.344,-8.384 -6.72,0 0,8.384 -2.24,0 m 2.24,-10.368 7.424,0 c 0.66132,1e-5 1.25865,-0.13865 1.792,-0.416 0.55465,-0.29865 1.02398,-0.69332 1.408,-1.184 0.38398,-0.49065 0.68265,-1.04532 0.896,-1.664 0.21332,-0.61865 0.31998,-1.26932 0.32,-1.952 -2e-5,-0.68265 -0.12802,-1.33331 -0.384,-1.952 -0.23468,-0.63998 -0.56535,-1.19465 -0.992,-1.664 -0.40535,-0.46931 -0.89602,-0.84264 -1.472,-1.12 -0.55468,-0.27731 -1.14135,-0.41598 -1.76,-0.416 l -7.232,0 0,10.368"
       style="font-size:32px;-inkscape-font-specification:Raleway;fill:#ffffff"
       id="path3482" />
    <path
       d="m 420.03625,200.31843 c -1.57868,0 -3.02935,-0.32 -4.352,-0.96 -1.30134,-0.66133 -2.42134,-1.52533 -3.36,-2.592 -0.93867,-1.08799 -1.66401,-2.32533 -2.176,-3.712 -0.512,-1.38666 -0.768,-2.80532 -0.768,-4.256 0,-1.51465 0.26666,-2.96532 0.8,-4.352 0.55466,-1.38665 1.31199,-2.61331 2.272,-3.68 0.95999,-1.06664 2.09066,-1.90931 3.392,-2.528 1.30132,-0.63998 2.70932,-0.95998 4.224,-0.96 1.57865,2e-5 3.01865,0.34136 4.32,1.024 1.32265,0.66136 2.44265,1.53602 3.36,2.624 0.93864,1.08802 1.66398,2.32535 2.176,3.712 0.51197,1.36535 0.76797,2.76268 0.768,4.192 -3e-5,1.51468 -0.27736,2.96534 -0.832,4.352 -0.53336,1.38667 -1.28002,2.61334 -2.24,3.68 -0.93869,1.04534 -2.05869,1.888 -3.36,2.528 -1.30135,0.61867 -2.70935,0.928 -4.224,0.928 m -8.416,-11.52 c -10e-6,1.23735 0.20266,2.43201 0.608,3.584 0.40533,1.13068 0.98133,2.14401 1.728,3.04 0.74666,0.87467 1.63199,1.57867 2.656,2.112 1.02399,0.512 2.16532,0.768 3.424,0.768 1.27998,0 2.44265,-0.27733 3.488,-0.832 1.04531,-0.55466 1.93065,-1.27999 2.656,-2.176 0.72531,-0.89599 1.27998,-1.90932 1.664,-3.04 0.40531,-1.13066 0.60798,-2.28265 0.608,-3.456 -2e-5,-1.23732 -0.21336,-2.42132 -0.64,-3.552 -0.40536,-1.15198 -0.98135,-2.16531 -1.728,-3.04 -0.74669,-0.87465 -1.63202,-1.56798 -2.656,-2.08 -1.02402,-0.53331 -2.15468,-0.79998 -3.392,-0.8 -1.28001,2e-5 -2.44268,0.27736 -3.488,0.832 -1.04534,0.53335 -1.93068,1.24802 -2.656,2.144 -0.72534,0.89602 -1.29067,1.90935 -1.696,3.04 -0.38401,1.13068 -0.57601,2.28268 -0.576,3.456"
       style="font-size:32px;-inkscape-font-specification:Raleway;fill:#ffffff"
       id="path3484" />
  </g>
  <g
     transform="matrix(1.6081767,0,0,1.6081767,336.41973,47.862877)"
     id="g3941">
    <path
       style="fill:#ffffff"
       inkscape:connector-curvature="0"
       d="M 57,6 H 1 C 0.448,6 0,6.447 0,7 v 44 c 0,0.553 0.448,1 1,1 h 56 c 0.552,0 1,-0.447 1,-1 V 7 C 58,6.447 57.552,6 57,6 z M 56,50 H 2 V 8 h 54 v 42 z"
       id="path3943" />
    <path
       style="fill:#ffffff"
       inkscape:connector-curvature="0"
       d="m 16,28.138 c 3.071,0 5.569,-2.498 5.569,-5.568 C 21.569,19.498 19.071,17 16,17 c -3.071,0 -5.569,2.498 -5.569,5.569 0,3.071 2.498,5.569 5.569,5.569 z M 16,19 c 1.968,0 3.569,1.602 3.569,3.569 0,1.967 -1.601,3.569 -3.569,3.569 -1.968,0 -3.569,-1.601 -3.569,-3.568 C 12.431,20.603 14.032,19 16,19 z"
       id="path3945" />
    <path
       style="fill:#ffffff"
       inkscape:connector-curvature="0"
       d="m 7,46 c 0.234,0 0.47,-0.082 0.66,-0.249 L 23.973,31.389 34.275,41.69 c 0.391,0.391 1.023,0.391 1.414,0 0.391,-0.391 0.391,-1.023 0,-1.414 l -4.807,-4.807 9.181,-10.054 11.261,10.323 c 0.407,0.373 1.04,0.345 1.413,-0.062 0.373,-0.407 0.346,-1.04 -0.062,-1.413 l -12,-11 c -0.196,-0.179 -0.457,-0.268 -0.72,-0.262 -0.265,0.012 -0.515,0.129 -0.694,0.325 L 29.467,34.053 24.724,29.31 C 24.35,28.937 23.752,28.918 23.356,29.266 L 6.339,44.249 C 5.924,44.614 5.884,45.246 6.249,45.661 6.447,45.886 6.723,46 7,46 z"
       id="path3947" />
  </g>
  <g
     transform="matrix(3.0981432,0,0,3.0981432,10.480563,13.242114)"
     id="g3949" />
  <g
     transform="matrix(3.0981432,0,0,3.0981432,10.480563,13.242114)"
     id="g3951" />
  <g
     transform="matrix(3.0981432,0,0,3.0981432,10.480563,13.242114)"
     id="g3953" />
  <g
     transform="matrix(3.0981432,0,0,3.0981432,10.480563,13.242114)"
     id="g3955" />
  <g
     transform="matrix(3.0981432,0,0,3.0981432,10.480563,13.242114)"
     id="g3957" />
  <g
     transform="matrix(3.0981432,0,0,3.0981432,10.480563,13.242114)"
     id="g3959" />
  <g
     transform="matrix(3.0981432,0,0,3.0981432,10.480563,13.242114)"
     id="g3961" />
  <g
     transform="matrix(3.0981432,0,0,3.0981432,10.480563,13.242114)"
     id="g3963" />
  <g
     transform="matrix(3.0981432,0,0,3.0981432,10.480563,13.242114)"
     id="g3965" />
  <g
     transform="matrix(3.0981432,0,0,3.0981432,10.480563,13.242114)"
     id="g3967" />
  <g
     transform="matrix(3.0981432,0,0,3.0981432,10.480563,13.242114)"
     id="g3969" />
  <g
     transform="matrix(3.0981432,0,0,3.0981432,10.480563,13.242114)"
     id="g3971" />
  <g
     transform="matrix(3.0981432,0,0,3.0981432,10.480563,13.242114)"
     id="g3973" />
  <g
     transform="matrix(3.0981432,0,0,3.0981432,10.480563,13.242114)"
     id="g3975" />
  <g
     transform="matrix(3.0981432,0,0,3.0981432,10.480563,13.242114)"
     id="g3977" />
  <g
     id="g4799"
     transform="translate(0.70280657,-0.68705826)">
    <g
       id="g4772"
       transform="translate(12.850306,-13.859973)">
      <path
         inkscape:connector-curvature="0"
         id="path4774"
         d="m 398.3125,108.84375 c -16.80176,-0.0573 -28.32004,21.13953 -19.25,35.28125 7.2906,13.57564 28.7196,15.79444 38.28125,3.5 10.93715,-11.82221 4.78172,-34.05619 -11.15625,-37.8125 -2.52354,-0.80843 -5.23011,-1.09957 -7.875,-0.96875 z M 400,119.78125 c 10.57223,-0.14714 16.17632,15.06581 7.96875,21.84375 -7.0235,6.86209 -21.08549,1.66808 -21,-8.59375 -0.56879,-7.11958 5.93702,-13.73066 13.03125,-13.25 z"
         style="font-size:medium;font-style:normal;font-variant:normal;font-weight:normal;font-stretch:normal;text-indent:0;text-align:start;text-decoration:none;line-height:normal;letter-spacing:normal;word-spacing:normal;text-transform:none;direction:ltr;block-progression:tb;writing-mode:lr-tb;text-anchor:start;baseline-shift:baseline;color:#000000;fill:#1bc623;fill-opacity:1;stroke:none;stroke-width:3;marker:none;visibility:visible;display:inline;overflow:visible;enable-background:accumulate;font-family:Sans;-inkscape-font-specification:Sans" />
      <g
         transform="translate(0.08398628,-2.0249882)"
         id="g4776">
        <rect
           style="color:#000000;fill:#ffffff;fill-opacity:1;fill-rule:nonzero;stroke:none;stroke-width:3;marker:none;visibility:visible;display:inline;overflow:visible;enable-background:accumulate"
           id="rect4778"
           width="2.7536225"
           height="16.888981"
           x="397.99234"
           y="125.893"
           ry="1.3768113"
           rx="1.3768113" />
        <rect
           ry="1.3768113"
           y="-407.81363"
           x="132.96068"
           height="16.888981"
           width="2.7536225"
           id="rect4780"
           style="color:#000000;fill:#ffffff;fill-opacity:1;fill-rule:nonzero;stroke:none;stroke-width:3;marker:none;visibility:visible;display:inline;overflow:visible;enable-background:accumulate"
           rx="1.3768113"
           transform="matrix(0,1,-1,0,0,0)" />
      </g>
      <rect
         transform="matrix(0.71173985,-0.70244316,0.66979219,0.7425486,0,0)"
         rx="1.330209"
         ry="1.3302143"
         y="392.68488"
         x="208.18649"
         height="20.611065"
         width="3.2225001"
         id="rect4782"
         style="color:#000000;fill:#ffffff;fill-opacity:1;fill-rule:nonzero;stroke:none;stroke-width:3;marker:none;visibility:visible;display:inline;overflow:visible;enable-background:accumulate" />
    </g>
    <rect
       y="119.835"
       x="397.62518"
       height="22.763399"
       width="29.28034"
       id="rect4788"
       style="color:#000000;fill:#1bc623;fill-opacity:1;fill-rule:nonzero;stroke:#1bc623;stroke-width:3;stroke-linecap:round;stroke-linejoin:round;stroke-miterlimit:4;stroke-opacity:1;stroke-dasharray:none;stroke-dashoffset:0;marker:none;visibility:visible;display:inline;overflow:visible;enable-background:accumulate" />
    <path
       inkscape:connector-curvature="0"
       id="path4751"
       d="m 412.31906,98.952527 c -10.7465,0 -19.5,8.753503 -19.5,19.500003 0,10.7465 8.7535,19.5 19.5,19.5 10.7465,0 19.46875,-8.7535 19.46875,-19.5 0,-10.7465 -8.72225,-19.500003 -19.46875,-19.500003 z m 0,3.000003 c 9.12518,0 16.46875,7.37482 16.46875,16.5 0,9.12518 -7.34357,16.5 -16.46875,16.5 -9.12518,0 -16.5,-7.37482 -16.5,-16.5 0,-9.12518 7.37482,-16.5 16.5,-16.5 z"
       style="font-size:medium;font-style:normal;font-variant:normal;font-weight:normal;font-stretch:normal;text-indent:0;text-align:start;text-decoration:none;line-height:normal;letter-spacing:normal;word-spacing:normal;text-transform:none;direction:ltr;block-progression:tb;writing-mode:lr-tb;text-anchor:start;baseline-shift:baseline;color:#000000;fill:#ffffff;fill-opacity:1;stroke:none;stroke-width:3;marker:none;visibility:visible;display:inline;overflow:visible;enable-background:accumulate;font-family:Sans;-inkscape-font-specification:Sans" />
    <g
       transform="translate(12.934292,-15.884961)"
       id="g4757">
      <rect
         style="color:#000000;fill:#ffffff;fill-opacity:1;fill-rule:nonzero;stroke:none;stroke-width:3;marker:none;visibility:visible;display:inline;overflow:visible;enable-background:accumulate"
         id="rect4753"
         width="2.7536225"
         height="16.888981"
         x="397.99234"
         y="125.893"
         ry="1.3768113"
         rx="1.3768113" />
      <rect
         ry="1.3768113"
         y="-407.81363"
         x="132.96068"
         height="16.888981"
         width="2.7536225"
         id="rect4755"
         style="color:#000000;fill:#ffffff;fill-opacity:1;fill-rule:nonzero;stroke:none;stroke-width:3;marker:none;visibility:visible;display:inline;overflow:visible;enable-background:accumulate"
         rx="1.3768113"
         transform="matrix(0,1,-1,0,0,0)" />
    </g>
    <rect
       transform="matrix(0.71173985,-0.70244316,0.66979219,0.7425486,0,0)"
       rx="1.330209"
       ry="1.3302143"
       y="391.84595"
       x="227.03076"
       height="20.611065"
       width="3.2225001"
       id="rect4763"
       style="color:#000000;fill:#ffffff;fill-opacity:1;fill-rule:nonzero;stroke:none;stroke-width:3;marker:none;visibility:visible;display:inline;overflow:visible;enable-background:accumulate" />
  </g>
</svg>
